<svg xmlns="http://www.w3.org/2000/svg" viewBox="0 0 130.4 130.4"><defs><style>.cls-1{fill:#374953;}.cls-1,.cls-2{fill-rule:evenodd;}.cls-2,.cls-3{fill:#fff;}</style></defs><title>Asset 8_step1</title><g id="Layer_2" data-name="Layer 2"><g id="Content"><path class="cls-1" d="M65.2,0A65.2,65.2,0,1,1,0,65.2,65.2,65.2,0,0,1,65.2,0Z"/><path class="cls-2" d="M65.21,27.59a.45.45,0,0,1-.49.41h0a.45.45,0,0,1-.49-.41v-2.9a.45.45,0,0,1,.49-.41h0a.45.45,0,0,1,.49.41v2.9Z"/><path class="cls-2" d="M55.06,32.06a.47.47,0,0,1,0,.64h0a.45.45,0,0,1-.63.09l-2.15-1.95a.44.44,0,0,1,0-.63h0a.45.45,0,0,1,.63-.09l2.16,1.94Z"/><path class="cls-2" d="M51.59,42.6A.45.45,0,0,1,52,43h0a.45.45,0,0,1-.35.53l-2.89.3a.44.44,0,0,1-.45-.44h0a.46.46,0,0,1,.35-.53l2.89-.3Z"/><path class="cls-2" d="M78.71,42.71a.46.46,0,0,1-.35-.53h0a.44.44,0,0,1,.45-.44l2.89.3a.46.46,0,0,1,.36.53h0a.47.47,0,0,1-.46.44l-2.89-.3Z"/><path class="cls-2" d="M75.33,32.14a.45.45,0,0,1-.63-.09h0a.45.45,0,0,1,0-.63l2.16-2a.45.45,0,0,1,.63.09h0a.47.47,0,0,1,0,.64l-2.16,1.94Z"/><path class="cls-2" d="M68,54.28a1,1,0,0,1-.37.76.71.71,0,0,1-.43.14h-5a.71.71,0,0,1-.43-.14.94.94,0,0,1-.37-.76V51.47H68v2.81ZM60.82,34.71a6.45,6.45,0,0,0-.3,10.13.49.49,0,0,1,.09.64h0a.49.49,0,0,1-.71.09,7.42,7.42,0,0,1,.34-11.64.47.47,0,0,1,.68.11h0a.47.47,0,0,1-.1.65ZM75,39.89a10.36,10.36,0,1,0-14.63,9.45v4.94a1.84,1.84,0,0,0,1.49,1.85,4,4,0,0,0,.25.74A2.4,2.4,0,0,0,64,58.46h1.4a2.37,2.37,0,0,0,1.82-1.59,4.07,4.07,0,0,0,.26-.74,1.84,1.84,0,0,0,1.48-1.85V49.34A10.37,10.37,0,0,0,75,39.89Z"/><path class="cls-3" d="M53.05,72.49a2.74,2.74,0,0,0-.51-.38,6.22,6.22,0,0,0-.9-.47,6.47,6.47,0,0,0-1.15-.39,4.84,4.84,0,0,0-1.26-.16,2.82,2.82,0,0,0-1.7.42A1.39,1.39,0,0,0,47,72.69a1.23,1.23,0,0,0,.21.73,1.86,1.86,0,0,0,.61.51,5.58,5.58,0,0,0,1,.4l1.41.38a17.6,17.6,0,0,1,1.89.6,5,5,0,0,1,1.44.8,3.27,3.27,0,0,1,.91,1.15,3.82,3.82,0,0,1,.32,1.65,4.07,4.07,0,0,1-.43,2,3.67,3.67,0,0,1-1.16,1.31,5.32,5.32,0,0,1-1.68.73,8.61,8.61,0,0,1-2,.23,10.67,10.67,0,0,1-3.16-.48,10,10,0,0,1-2.8-1.36l1.22-2.38a4.46,4.46,0,0,0,.65.47,11.15,11.15,0,0,0,1.11.58,9.82,9.82,0,0,0,1.42.49,6.55,6.55,0,0,0,1.6.2c1.52,0,2.28-.49,2.28-1.46a1.2,1.2,0,0,0-.26-.78,2.09,2.09,0,0,0-.74-.56,6.9,6.9,0,0,0-1.16-.44L48.15,77a13.39,13.39,0,0,1-1.77-.61,4.6,4.6,0,0,1-1.25-.78,3,3,0,0,1-.75-1,3.59,3.59,0,0,1-.25-1.41,4.37,4.37,0,0,1,.4-1.92,3.92,3.92,0,0,1,1.11-1.4A4.78,4.78,0,0,1,47.29,69a6.62,6.62,0,0,1,2-.29,7.69,7.69,0,0,1,2.76.47,10.05,10.05,0,0,1,2.2,1.11l-1.22,2.24Z"/><path class="cls-3" d="M62.75,82.43a12,12,0,0,1-1.32.48,5.56,5.56,0,0,1-1.64.24,4,4,0,0,1-1-.14,2.52,2.52,0,0,1-.86-.45,2.29,2.29,0,0,1-.59-.8,2.87,2.87,0,0,1-.22-1.19v-6H55.69V72.49h1.38v-3.4h2.68v3.4H62v2.06h-2.2v5.12a1,1,0,0,0,.29.79,1.12,1.12,0,0,0,.71.23,2.57,2.57,0,0,0,.82-.14l.64-.24.54,2.12Z"/><path class="cls-3" d="M68.75,83.17a5.94,5.94,0,0,1-2.28-.43,5.14,5.14,0,0,1-2.85-2.89,5.55,5.55,0,0,1-.39-2.06,5.9,5.9,0,0,1,.38-2.11,5.1,5.1,0,0,1,1.1-1.74,5.17,5.17,0,0,1,1.75-1.19,5.73,5.73,0,0,1,2.31-.44,5.57,5.57,0,0,1,2.29.44,5.12,5.12,0,0,1,1.72,1.18,5,5,0,0,1,1.08,1.72,5.63,5.63,0,0,1,.37,2c0,.17,0,.34,0,.5a2.07,2.07,0,0,1,0,.4h-8.1a3.13,3.13,0,0,0,.3,1.1,2.82,2.82,0,0,0,.62.82,2.78,2.78,0,0,0,1.86.7,3.09,3.09,0,0,0,1.51-.39,2.09,2.09,0,0,0,1-1l2.3.64a4.71,4.71,0,0,1-1.85,2,5.78,5.78,0,0,1-3,.77Zm2.72-6.32A2.8,2.8,0,0,0,70.6,75a2.63,2.63,0,0,0-1.87-.71,2.59,2.59,0,0,0-1,.19,2.5,2.5,0,0,0-.83.53,2.61,2.61,0,0,0-.59.82A3,3,0,0,0,66,76.85Z"/><path class="cls-3" d="M82.15,83.17A4.18,4.18,0,0,1,80,82.62a4,4,0,0,1-1.44-1.49v6.1H75.87V72.49h2.34v1.8a4.25,4.25,0,0,1,1.5-1.45,4.1,4.1,0,0,1,2.12-.53,4.43,4.43,0,0,1,2,.43,4.68,4.68,0,0,1,1.55,1.16,5.45,5.45,0,0,1,1,1.72,5.82,5.82,0,0,1,.37,2.09,6.53,6.53,0,0,1-.34,2.14,5.62,5.62,0,0,1-1,1.74A4.51,4.51,0,0,1,84,82.75a4,4,0,0,1-1.84.42Zm-.9-2.28a2.45,2.45,0,0,0,1.11-.26,2.83,2.83,0,0,0,.87-.7,3.37,3.37,0,0,0,.56-1,3.78,3.78,0,0,0,.2-1.2,3.32,3.32,0,0,0-.22-1.23,3.11,3.11,0,0,0-.61-1,2.88,2.88,0,0,0-.92-.66,2.75,2.75,0,0,0-1.15-.24,2.45,2.45,0,0,0-.78.13,2.57,2.57,0,0,0-.74.37,2.94,2.94,0,0,0-.61.56,2.15,2.15,0,0,0-.41.7v2.46a3.63,3.63,0,0,0,1.1,1.49,2.54,2.54,0,0,0,1.6.59Z"/><path class="cls-3" d="M65.44,100.59a7.29,7.29,0,0,1-.39,2.43A6,6,0,0,1,64,104.94a4.91,4.91,0,0,1-1.64,1.26,4.92,4.92,0,0,1-4.11,0,4.87,4.87,0,0,1-1.63-1.26A6,6,0,0,1,55.51,103a7.77,7.77,0,0,1,0-4.86,6,6,0,0,1,1.08-1.92A4.9,4.9,0,0,1,58.22,95a4.82,4.82,0,0,1,4.11,0A4.94,4.94,0,0,1,64,96.24a6,6,0,0,1,1.08,1.92,7.29,7.29,0,0,1,.39,2.43Zm-2.7,0a5.58,5.58,0,0,0-.18-1.47A3.68,3.68,0,0,0,62.05,98a2.38,2.38,0,0,0-.78-.74,1.88,1.88,0,0,0-1-.26,1.93,1.93,0,0,0-1,.26,2.38,2.38,0,0,0-.78.74A3.68,3.68,0,0,0,58,99.12a6.05,6.05,0,0,0,0,2.93,3.73,3.73,0,0,0,.51,1.14,2.49,2.49,0,0,0,.78.74,2,2,0,0,0,1,.26,2,2,0,0,0,1-.26,2.49,2.49,0,0,0,.78-.74,3.73,3.73,0,0,0,.51-1.14,5.56,5.56,0,0,0,.18-1.46Z"/><path class="cls-3" d="M75.82,104v2.42H67.7V104h2.84V98a2.24,2.24,0,0,1-.57.49,9.54,9.54,0,0,1-.85.47,7.74,7.74,0,0,1-1,.36,3.39,3.39,0,0,1-.87.14v-2.5a2.34,2.34,0,0,0,.88-.23,8.38,8.38,0,0,0,1-.55q.49-.33.87-.63a2.19,2.19,0,0,0,.47-.49h2.74v9Z"/><path class="cls-3" d="M65.2,5.53A59.67,59.67,0,1,1,5.53,65.2,59.68,59.68,0,0,1,65.2,5.53Zm0,2.13A57.54,57.54,0,1,0,122.74,65.2,57.54,57.54,0,0,0,65.2,7.66Z"/></g></g></svg>