<svg xmlns="http://www.w3.org/2000/svg" viewBox="0 0 210.36 219.85"><defs><style>.cls-1{isolation:isolate;}.cls-2{fill:#424951;}.cls-3{fill:#f6775e;}.cls-4{fill:#4ca3cc;}.cls-5{fill:#4493b8;}.cls-6{fill:#fff;}.cls-7{fill:#fc0;}.cls-8{fill:#ffa600;}.cls-9{fill:#d9d9d9;mix-blend-mode:multiply;}.cls-10{fill:#004e73;}.cls-11{fill:#0e173b;}.cls-12{fill:#fbb03b;}</style></defs><title>Asset 2accelerator</title><g class="cls-1"><g id="Layer_2" data-name="Layer 2"><g id="Layer_1-2" data-name="Layer 1"><polygon class="cls-3" points="116.67 211.45 181.33 154.29 181.33 181.23 116.67 211.45"/><polygon class="cls-3" points="40.81 38.83 120.64 16.07 40.81 90.61 40.81 38.83"/><polygon class="cls-3" points="60.73 152.72 167.82 113.96 167.82 82.16 60.73 103.1 60.73 152.72"/><polygon class="cls-3" points="12.78 216.03 145.95 151.06 145.95 115.25 12.78 163.87 12.78 216.03"/><polygon class="cls-4" points="40.81 38.83 167.82 82.16 167.82 113.96 40.81 90.61 40.81 38.83"/><polygon class="cls-4" points="181.33 154.29 181.33 181.23 12.78 216.03 12.78 163.87 181.33 154.29"/><polygon class="cls-5" points="60.73 152.72 60.73 103.11 145.95 115.25 145.95 151.06 60.73 152.72"/><polygon class="cls-5" points="40.81 38.83 40.81 90.61 80.41 52.34 40.81 38.83"/><polygon class="cls-5" points="167.82 82.16 84 98.55 167.82 113.96 167.82 82.16"/><polygon class="cls-5" points="141.56 189.44 181.33 181.23 181.33 154.29 141.56 189.44"/><polygon class="cls-5" points="12.78 163.87 12.78 216.03 133.79 156.99 12.78 163.87"/><path class="cls-6" d="M69.6,67.17a7.64,7.64,0,0,0-2.09-.94,3.32,3.32,0,0,0-1.94-.14,1,1,0,0,0-.59,1,1.65,1.65,0,0,0,.44,1.16,3.92,3.92,0,0,0,1.39.89l2,.87A7.79,7.79,0,0,1,72.2,72.6a6.24,6.24,0,0,1,1.09,3.67,5.42,5.42,0,0,1-.38,2.14,3.52,3.52,0,0,1-1.12,1.45,4,4,0,0,1-1.88.68,7.26,7.26,0,0,1-2.55-.19,12.63,12.63,0,0,1-3.12-1.19,11,11,0,0,1-2.78-2.26c.53-1.17.79-1.75,1.32-2.88a11.31,11.31,0,0,0,2.33,1.88,9.2,9.2,0,0,0,2.44,1,3,3,0,0,0,2,0,1.23,1.23,0,0,0,.66-1.2,1.88,1.88,0,0,0-.45-1.27,4.32,4.32,0,0,0-1.5-1l-2.12-.88A7.57,7.57,0,0,1,63,70.19a6.13,6.13,0,0,1-1.13-3.76,4.48,4.48,0,0,1,.42-2,2.88,2.88,0,0,1,1.12-1.24,4,4,0,0,1,1.75-.42,7.8,7.8,0,0,1,2.28.33,11.53,11.53,0,0,1,3,1.36,9.64,9.64,0,0,1,2.43,2.17l-1.51,2.1A8.65,8.65,0,0,0,69.6,67.17Z"/><path class="cls-6" d="M87.21,72.13l-4.5-1.26v12.8l-3-.71V70l-4.59-1.28V65.61l12,3.45Z"/><path class="cls-6" d="M101.51,88.22l-3.12-.76c-.39-1.34-.58-2-1-3.34l-5.48-1.39c-.39,1.16-.58,1.75-1,2.94l-3.17-.77C90,78.88,91,76,93.13,70.74l3.15.9C98.39,78.12,99.44,81.49,101.51,88.22Zm-5-7.4c-.67-2.52-1-3.78-1.69-6.25l-.19-.06c-.69,2.1-1,3.17-1.73,5.36Z"/><path class="cls-6" d="M111.77,76.46a6.28,6.28,0,0,1,2.46,3.22,6.07,6.07,0,0,1,.35,2.11,4.34,4.34,0,0,1-.65,2.45,3,3,0,0,1-1.84,1.26l3,6-3.3-.8c-.9-2-1.34-3-2.25-5L107,85.05v4.51l-2.78-.67V74l5.59,1.61A6.63,6.63,0,0,1,111.77,76.46Zm-2.14,6.34a1.78,1.78,0,0,0,1.57-.17,1.69,1.69,0,0,0,.6-1.46,2.72,2.72,0,0,0-2.09-2.77L107,77.64v4.45Z"/><path class="cls-6" d="M127.08,83.35l-4-1.13V93.49l-2.64-.64V81.47l-4.08-1.15V77.44l10.73,3.11Z"/><path class="cls-6" d="M132.3,89.68A5.6,5.6,0,0,0,133,92.5,3,3,0,0,0,134.9,94a1.8,1.8,0,0,0,1.94-.41,3.69,3.69,0,0,0,.64-2.42V83.57l2.54.74v7.45a8.32,8.32,0,0,1-.33,2.46,4.06,4.06,0,0,1-1,1.7,3.26,3.26,0,0,1-1.58.88,5.07,5.07,0,0,1-2.23-.1,6.7,6.7,0,0,1-2.2-1A6.32,6.32,0,0,1,131.05,94a7.76,7.76,0,0,1-1-2.26A10.49,10.49,0,0,1,129.7,89V81.31l2.6.75Z"/><path class="cls-6" d="M149.86,87.53a6,6,0,0,1,2.26,3.08,6.44,6.44,0,0,1,.3,2,4.52,4.52,0,0,1-.34,1.9,3,3,0,0,1-1,1.19,3.1,3.1,0,0,1-1.43.54,5,5,0,0,1-1.8-.15l-2.24-.59v3.55l-2.49-.62V85.22l4.92,1.43A6.22,6.22,0,0,1,149.86,87.53Zm-2,6a1.69,1.69,0,0,0,1.53-.16A1.63,1.63,0,0,0,150,92a2.82,2.82,0,0,0-.49-1.68,2.6,2.6,0,0,0-1.51-1l-2.33-.67v4.33Z"/><path class="cls-6" d="M46.07,194.71l-3.58.54c-.44-1.2-.66-1.81-1.1-3.05l-6.28.9c-.44,1.39-.66,2.08-1.1,3.43l-3.62.54c2.45-6.89,3.67-10.66,6.09-18.42l3.61-.38C42.5,185.43,43.69,188.74,46.07,194.71ZM40.33,189c-.78-2.5-1.17-3.79-1.95-6.45l-.21,0c-.79,2.86-1.19,4.26-2,7Z"/><path class="cls-6" d="M56,180.23a5,5,0,0,0-2.11-.19,4.59,4.59,0,0,0-1.87.61A5.07,5.07,0,0,0,50.6,182a6.44,6.44,0,0,0-.91,1.86,7.62,7.62,0,0,0-.31,2.21,6.35,6.35,0,0,0,.31,2.14,3.92,3.92,0,0,0,.94,1.49,3.45,3.45,0,0,0,1.41.87,4,4,0,0,0,1.81.09,6,6,0,0,0,2.24-.78,6.93,6.93,0,0,0,1.83-1.62c.7.91,1,1.35,1.76,2.24a9.27,9.27,0,0,1-6,3.41,7.16,7.16,0,0,1-3-.1,5.65,5.65,0,0,1-2.38-1.3A6.51,6.51,0,0,1,46.75,190a10.26,10.26,0,0,1-.55-3.51,12.05,12.05,0,0,1,.55-3.58,10.67,10.67,0,0,1,1.56-3.13,8.83,8.83,0,0,1,2.46-2.27,7.57,7.57,0,0,1,3.25-1.1,7,7,0,0,1,3,.31,6.38,6.38,0,0,1,2.41,1.5l-1.72,3A4.24,4.24,0,0,0,56,180.23Z"/><path class="cls-6" d="M70.18,178.53a4.75,4.75,0,0,0-2-.18,4.4,4.4,0,0,0-1.8.59A4.78,4.78,0,0,0,65,180.2a6.16,6.16,0,0,0-.88,1.8,7.24,7.24,0,0,0-.3,2.12,6.13,6.13,0,0,0,.3,2.06,3.93,3.93,0,0,0,.9,1.44,3.49,3.49,0,0,0,1.36.84,4,4,0,0,0,1.74.09,5.7,5.7,0,0,0,2.15-.76A6.64,6.64,0,0,0,72,186.22l1.69,2.17A8.86,8.86,0,0,1,68,191.7a6.81,6.81,0,0,1-2.9-.1,5.41,5.41,0,0,1-2.29-1.26A6.26,6.26,0,0,1,61.29,188a9.86,9.86,0,0,1-.54-3.38,11.51,11.51,0,0,1,.54-3.45,10.27,10.27,0,0,1,1.49-3A8.6,8.6,0,0,1,65.15,176a7.27,7.27,0,0,1,3.12-1,6.7,6.7,0,0,1,2.87.29,6,6,0,0,1,2.32,1.42c-.66,1.15-1,1.73-1.66,2.87A4.18,4.18,0,0,0,70.18,178.53Z"/><path class="cls-6" d="M85.69,176.52l-6.84.84v3l6.11-.8v3l-6.11.85v3.28L86,185.64v3l-10.08,1.55V174.41l9.75-1.08Z"/><path class="cls-6" d="M91.77,184.74l6.77-1v2.94l-9.61,1.49V173l2.84-.32Z"/><path class="cls-6" d="M109.66,173.55l-6.39.8v2.78l5.71-.77v2.81l-5.71.82v3.08l6.69-1v2.84l-9.41,1.46V171.66l9.11-1Z"/><path class="cls-6" d="M119.88,169.77a3.81,3.81,0,0,1,1.44.79,3.93,3.93,0,0,1,.92,1.38,5.08,5.08,0,0,1,.33,1.9,5.44,5.44,0,0,1-.63,2.61,5,5,0,0,1-1.75,1.9l2.82,4.51-3.15.5c-.86-1.51-1.29-2.27-2.15-3.81l-2.37.35v4.17l-2.66.41V170.27l5.35-.62A4.67,4.67,0,0,1,119.88,169.77Zm-2,7a2.32,2.32,0,0,0,2.08-2.42,1.89,1.89,0,0,0-.54-1.49,1.78,1.78,0,0,0-1.47-.36l-2.56.33v4.29Z"/><path class="cls-6" d="M135.8,180.84l-2.78.44-.85-2.54-4.86.74c-.34,1.14-.52,1.7-.86,2.84l-2.79.44c1.89-5.78,2.83-8.68,4.7-14.33l2.8-.33C133,173.25,134,175.76,135.8,180.84Zm-4.46-4.63c-.6-2-.9-2.94-1.5-4.92l-.17,0c-.61,2.14-.92,3.21-1.53,5.37Z"/><path class="cls-6" d="M145,169.05l-3.73.48V180l-2.45.39V169.85l-3.8.5v-2.69c4.05-.48,6.05-.71,10-1.19Z"/><path class="cls-6" d="M153.79,165.62a4.51,4.51,0,0,1,1.77,1.12,5.33,5.33,0,0,1,1.15,1.85,7.24,7.24,0,0,1,.41,2.5,8.6,8.6,0,0,1-.41,2.58,8.19,8.19,0,0,1-1.15,2.31,7,7,0,0,1-1.77,1.71,5.58,5.58,0,0,1-2.3.92,4.77,4.77,0,0,1-2.28-.14,4.58,4.58,0,0,1-1.8-1.16,5.36,5.36,0,0,1-1.2-2,8,8,0,0,1-.42-2.6,8.69,8.69,0,0,1,.42-2.65,7.29,7.29,0,0,1,1.2-2.26,7,7,0,0,1,1.8-1.6,5.59,5.59,0,0,1,2.28-.79A5.25,5.25,0,0,1,153.79,165.62Zm-3.69,2.77a3.6,3.6,0,0,0-1,1,4.58,4.58,0,0,0-.66,1.37,6.11,6.11,0,0,0-.22,1.63,5.41,5.41,0,0,0,.22,1.59,3.22,3.22,0,0,0,.66,1.21,2.64,2.64,0,0,0,1,.72,2.77,2.77,0,0,0,1.37.1,3.26,3.26,0,0,0,1.38-.55,3.79,3.79,0,0,0,1-1.06,4.71,4.71,0,0,0,.63-1.38,5.93,5.93,0,0,0,.21-1.59,5.63,5.63,0,0,0-.22-1.55,3.35,3.35,0,0,0-.65-1.18,2.41,2.41,0,0,0-1-.69,3,3,0,0,0-1.38-.12A3.46,3.46,0,0,0,150.1,168.39Z"/><path class="cls-6" d="M165.11,164.29a3.16,3.16,0,0,1,1.27.63,3.1,3.1,0,0,1,.81,1.14,4,4,0,0,1,.29,1.6,4.65,4.65,0,0,1-.55,2.25,4.57,4.57,0,0,1-1.55,1.69c1,1.61,1.5,2.42,2.5,4.09l-2.79.45c-.75-1.41-1.13-2.1-1.89-3.47l-2.09.33v3.78l-2.33.38V164.8l4.7-.58A4.17,4.17,0,0,1,165.11,164.29Zm-1.8,5.93a2.15,2.15,0,0,0,1.32-.69,2,2,0,0,0,.51-1.41,1.53,1.53,0,0,0-.48-1.26,1.6,1.6,0,0,0-1.29-.29l-2.26.3v3.67Z"/><path class="cls-7" d="M110.48,21.77,95,30.48s3.85-6.75,8.42-9.32a14.67,14.67,0,0,1,5.59-2Z"/><path class="cls-8" d="M110.48,21.77,95,30.48s7.76.21,12.34-2.36A14.76,14.76,0,0,0,112,24.39Z"/><path class="cls-6" d="M111.16,23l-.68-1.21-.69-1.22a10.74,10.74,0,0,0-3.24,1.31,15.88,15.88,0,0,0-4,3.52c-.41.51-.61.92-.51,1.11s.57.22,1.22.14a15.84,15.84,0,0,0,5.06-1.55A10.77,10.77,0,0,0,111.16,23Z"/><path class="cls-3" d="M110.88,15.77c-.26-.26-4.33-4.56-5.43-5.73a.48.48,0,0,1-.09-.6c1-1.3,1.71-1.76,2.68-1.93,1.64-.27,8.37,1.4,8.37,1.4Z"/><path class="cls-3" d="M115.81,24.53c.09.36,1.66,6.07,2.08,7.61a.48.48,0,0,0,.47.39c1.65-.21,2.39-.54,3-1.28,1.09-1.26,3.16-7.88,3.16-7.88Z"/><path class="cls-9" d="M115.81,24.53c.09.36,1.66,6.07,2.08,7.61a.48.48,0,0,0,.47.39c1.65-.21,2.39-.54,3-1.28,1.09-1.26,3.16-7.88,3.16-7.88Z"/><path class="cls-4" d="M147.87.72c-.2-.36-.68-.56-1.54-.63A49.31,49.31,0,0,0,133,1.29a44.74,44.74,0,0,0-16.76,7.77,27.67,27.67,0,0,0-7.71,9.2l2,3.5,2,3.51a27.64,27.64,0,0,0,11.87-1.82,44.69,44.69,0,0,0,15.34-10.29,49.38,49.38,0,0,0,8-10.79C148,1.6,148.08,1.08,147.87.72Z"/><path class="cls-3" d="M147.61,2.37c.36-.72.46-1.22.3-1.58a.25.25,0,0,0,0-.07l0-.07c-.22-.31-.7-.49-1.5-.56A45.72,45.72,0,0,0,136.1.68s1.63,1,3.68,4.6,2,5.52,2,5.52A45.65,45.65,0,0,0,147.61,2.37Z"/><path class="cls-3" d="M113.17,20.25l-2.83-5a21.72,21.72,0,0,0-1.83,3l2,3.51,2,3.5a21.3,21.3,0,0,0,3.55,0Z"/><path class="cls-3" d="M124.12,6.73a6.41,6.41,0,1,0,8.73,2.44A6.41,6.41,0,0,0,124.12,6.73Z"/><path class="cls-6" d="M124.83,8a5,5,0,1,0,6.77,1.9A5,5,0,0,0,124.83,8Z"/><path class="cls-10" d="M125.07,8.41a4.49,4.49,0,1,0,6.11,1.71A4.48,4.48,0,0,0,125.07,8.41Z"/><path class="cls-11" d="M125.07,8.41a4.48,4.48,0,0,0-1.71,6.11l7.82-4.4A4.48,4.48,0,0,0,125.07,8.41Z"/><path class="cls-9" d="M139.66,13.16a49.38,49.38,0,0,0,8-10.79c.38-.77.47-1.29.26-1.65L110.48,21.77l2,3.5a27.64,27.64,0,0,0,11.87-1.82A44.69,44.69,0,0,0,139.66,13.16Z"/><path class="cls-12" d="M69.38,135.62c.2-6.2.3-9.3.51-15.5l3.43.27a9.38,9.38,0,0,1,2.5.42,3.14,3.14,0,0,1,1.5,1.6,6.22,6.22,0,0,1,.52,3,6.13,6.13,0,0,1-.62,2.68,3.37,3.37,0,0,1-1.37,1.5,6.19,6.19,0,0,1-2.75.35l-1.4,0c-.07,2.32-.11,3.48-.19,5.79Zm2.55-12.73c-.06,1.74-.09,2.61-.14,4.36l1.18,0a4.35,4.35,0,0,0,1.63-.12,1.49,1.49,0,0,0,.72-.67,2.7,2.7,0,0,0,.32-1.24,2.66,2.66,0,0,0-.25-1.28,1.49,1.49,0,0,0-.67-.74A5.4,5.4,0,0,0,73,123Z"/><path class="cls-12" d="M81.2,135.68h-2l.35-10.7,1.88.11,0,1.51a4.42,4.42,0,0,1,.92-1.36,1.22,1.22,0,0,1,.89-.3,2.09,2.09,0,0,1,1.31.61c-.28.94-.42,1.42-.71,2.38a1.46,1.46,0,0,0-.93-.5.93.93,0,0,0-.76.32,2.42,2.42,0,0,0-.5,1.26,26.49,26.49,0,0,0-.26,3.41Z"/><path class="cls-12" d="M84.7,130.34a7,7,0,0,1,.64-2.76,4.18,4.18,0,0,1,1.49-1.8,3.24,3.24,0,0,1,2-.5A3.43,3.43,0,0,1,91.68,127a6.37,6.37,0,0,1,.94,3.68,6.92,6.92,0,0,1-.64,2.78,4.62,4.62,0,0,1-1.51,1.87,3.49,3.49,0,0,1-2,.62,3.31,3.31,0,0,1-2.79-1.46A6.58,6.58,0,0,1,84.7,130.34Zm2.08.22a4,4,0,0,0,.48,2.38,1.57,1.57,0,0,0,1.32.82,1.62,1.62,0,0,0,1.34-.77,4.18,4.18,0,0,0,.62-2.33,4,4,0,0,0-.48-2.32,1.62,1.62,0,0,0-1.31-.86,1.53,1.53,0,0,0-1.34.74A4.08,4.08,0,0,0,86.78,130.56Z"/><path class="cls-12" d="M93.49,125.79l1.12.07c0-.3,0-.45,0-.75a5.53,5.53,0,0,1,.31-1.94,1.78,1.78,0,0,1,.81-.88,2.41,2.41,0,0,1,1.35-.24,4.71,4.71,0,0,1,1.68.47c-.13.7-.19,1-.32,1.75a3.81,3.81,0,0,0-.94-.21.7.7,0,0,0-.63.22,1.77,1.77,0,0,0-.23,1c0,.28,0,.42,0,.7l1.51.09-.06,2L96.58,128l-.25,7.75h-2c.1-3.13.16-4.7.26-7.83l-1.13-.06C93.45,127,93.46,126.62,93.49,125.79Z"/><path class="cls-12" d="M98.41,126.08l1.13.07c0-.29,0-.44,0-.73a5.46,5.46,0,0,1,.3-1.88,1.8,1.8,0,0,1,.82-.86,2.41,2.41,0,0,1,1.35-.23,5.12,5.12,0,0,1,1.68.45c-.13.69-.19,1-.32,1.71a3.77,3.77,0,0,0-.94-.2.7.7,0,0,0-.63.21,1.65,1.65,0,0,0-.23,1l0,.68,1.51.09-.06,2-1.52-.07c-.09,3-.14,4.52-.24,7.54h-2l.25-7.63-1.13-.05C98.37,127.29,98.38,126.89,98.41,126.08Z"/><path class="cls-6" d="M113.49,135.85h-2.32c-.34-1.13-.5-1.69-.84-2.83l-4.24-.1-1,2.9-2.27,0c1.82-5.2,2.73-7.73,4.54-12.69l2.26.18C111.18,128.43,112,131,113.49,135.85Zm-3.78-5-1.31-4.73c-.63,1.84-1,2.76-1.58,4.63Z"/><path class="cls-6" d="M114.83,127.05l1.88.11c0,.51,0,.77,0,1.28a2.83,2.83,0,0,1,1.06-1,2.46,2.46,0,0,1,1.38-.31,3,3,0,0,1,2.22,1.27,4.86,4.86,0,0,1,.84,3.24,5.18,5.18,0,0,1-1.06,3.32,3,3,0,0,1-2.3,1.15,2.24,2.24,0,0,1-1.12-.28,3.37,3.37,0,0,1-1.08-1l-.14,4.37-2,0Zm1.87,4.32a3.63,3.63,0,0,0,.44,2.19,1.48,1.48,0,0,0,1.22.71,1.44,1.44,0,0,0,1.19-.62,3.48,3.48,0,0,0,.54-2.05,3.38,3.38,0,0,0-.42-2,1.48,1.48,0,0,0-1.17-.7,1.43,1.43,0,0,0-1.25.58A3.09,3.09,0,0,0,116.7,131.37Z"/><path class="cls-6" d="M123.86,127.58l1.88.11c0,.49,0,.73,0,1.21a2.9,2.9,0,0,1,1.06-1,2.63,2.63,0,0,1,1.38-.29,3,3,0,0,1,2.23,1.21,4.45,4.45,0,0,1,.84,3.06,4.67,4.67,0,0,1-1.05,3.12,3,3,0,0,1-2.3,1.08,2.41,2.41,0,0,1-1.13-.26,3.41,3.41,0,0,1-1.07-.94l-.14,4.13-2,0C123.63,134.47,123.71,132.18,123.86,127.58Zm1.87,4.09a3.27,3.27,0,0,0,.45,2.06,1.51,1.51,0,0,0,1.23.68,1.48,1.48,0,0,0,1.18-.58,3.18,3.18,0,0,0,.54-1.94,3,3,0,0,0-.42-1.91,1.5,1.5,0,0,0-1.17-.67,1.46,1.46,0,0,0-1.25.54A2.9,2.9,0,0,0,125.73,131.67Z"/><path class="cls-6" d="M132.06,133.71l2-.28a1.44,1.44,0,0,0,1.6,1.25,2,2,0,0,0,1.1-.22.67.67,0,0,0,.38-.58.48.48,0,0,0-.14-.4,1.61,1.61,0,0,0-.66-.27,9.62,9.62,0,0,1-3.14-1.13,2,2,0,0,1-.79-1.76,2.08,2.08,0,0,1,.88-1.71,3.8,3.8,0,0,1,2.43-.51,4.63,4.63,0,0,1,2.27.61,2.66,2.66,0,0,1,1.05,1.58l-1.92.26a1.33,1.33,0,0,0-1.42-1,2.35,2.35,0,0,0-1.07.13.53.53,0,0,0-.33.45.53.53,0,0,0,.28.44,9.56,9.56,0,0,0,1.79.59,5.53,5.53,0,0,1,2.27,1,1.84,1.84,0,0,1,.56,1.46,2.26,2.26,0,0,1-1,1.79,4.36,4.36,0,0,1-2.6.7,4.29,4.29,0,0,1-2.41-.63A2.77,2.77,0,0,1,132.06,133.71Z"/></g></g></g></svg>