<svg xmlns="http://www.w3.org/2000/svg" viewBox="0 0 130.4 130.4"><defs><style>.cls-1{fill:#f1af23;}.cls-1,.cls-2{fill-rule:evenodd;}.cls-2,.cls-3{fill:#fff;}</style></defs><title>Asset 6_step3</title><g id="Layer_2" data-name="Layer 2"><g id="Content"><path class="cls-1" d="M65.2,0A65.2,65.2,0,1,1,0,65.2,65.2,65.2,0,0,1,65.2,0Z"/><path class="cls-2" d="M78.21,36.48a10.16,10.16,0,1,0-17.7,7.59l-1.89,2.22a1.39,1.39,0,0,0-1.54.4L52.49,52.1a1.38,1.38,0,0,0,.16,2l1.41,1.21a1.4,1.4,0,0,0,2-.16l4.6-5.41a1.4,1.4,0,0,0,.12-1.61l1.88-2.22a10.15,10.15,0,0,0,15.58-9.39Zm-4.5,5.6a7.38,7.38,0,1,1,1.73-5.38A7.4,7.4,0,0,1,73.71,42.08Z"/><path class="cls-2" d="M70.06,32.26c.24,1-1.39,0-3.16.45s-3,2.09-3.26,1.08,1.71-2.31,2.77-2.59c1.22-.33,3.41.05,3.65,1.06Z"/><path class="cls-2" d="M72.12,33.07c-.15.43-.66.27-1.1.12s-.63-.23-.49-.66.24-.64.67-.49,1.06.59.92,1Z"/><path class="cls-3" d="M53.19,72.49a2.74,2.74,0,0,0-.51-.38,6.22,6.22,0,0,0-.9-.47,6.47,6.47,0,0,0-1.15-.39,4.84,4.84,0,0,0-1.26-.16,2.82,2.82,0,0,0-1.7.42,1.39,1.39,0,0,0-.56,1.18,1.23,1.23,0,0,0,.21.73,1.86,1.86,0,0,0,.61.51,5.89,5.89,0,0,0,1,.4l1.41.38a17.6,17.6,0,0,1,1.89.6,5,5,0,0,1,1.44.8,3.27,3.27,0,0,1,.91,1.15,3.82,3.82,0,0,1,.32,1.65,4.07,4.07,0,0,1-.43,2,3.58,3.58,0,0,1-1.16,1.31,5.22,5.22,0,0,1-1.68.73,8.61,8.61,0,0,1-2,.23,10.67,10.67,0,0,1-3.16-.48,10,10,0,0,1-2.8-1.36l1.22-2.38a4.46,4.46,0,0,0,.65.47,12.39,12.39,0,0,0,1.11.58,9.82,9.82,0,0,0,1.42.49,6.55,6.55,0,0,0,1.6.2c1.52,0,2.28-.49,2.28-1.46a1.2,1.2,0,0,0-.26-.78,2.09,2.09,0,0,0-.74-.56,6.9,6.9,0,0,0-1.16-.44L48.29,77a13.39,13.39,0,0,1-1.77-.61,4.6,4.6,0,0,1-1.25-.78,3,3,0,0,1-.75-1,3.59,3.59,0,0,1-.25-1.41,4.37,4.37,0,0,1,.4-1.92,3.92,3.92,0,0,1,1.11-1.4A4.78,4.78,0,0,1,47.43,69a6.62,6.62,0,0,1,2-.29,7.69,7.69,0,0,1,2.76.47,9.83,9.83,0,0,1,2.2,1.11l-1.22,2.24Z"/><path class="cls-3" d="M62.89,82.43a12,12,0,0,1-1.32.48,5.56,5.56,0,0,1-1.64.24,4,4,0,0,1-1-.14,2.52,2.52,0,0,1-.86-.45,2.42,2.42,0,0,1-.59-.8,3,3,0,0,1-.22-1.19v-6H55.83V72.49h1.38v-3.4h2.68v3.4h2.2v2.06h-2.2v5.12a1,1,0,0,0,.29.79,1.14,1.14,0,0,0,.71.23,2.52,2.52,0,0,0,.82-.14l.64-.24.54,2.12Z"/><path class="cls-3" d="M68.89,83.17a5.94,5.94,0,0,1-2.28-.43,5.14,5.14,0,0,1-2.85-2.89,5.55,5.55,0,0,1-.39-2.06,5.9,5.9,0,0,1,.38-2.11,5.1,5.1,0,0,1,1.1-1.74,5.17,5.17,0,0,1,1.75-1.19,5.73,5.73,0,0,1,2.31-.44,5.57,5.57,0,0,1,2.29.44,5.07,5.07,0,0,1,2.8,2.9,5.63,5.63,0,0,1,.37,2c0,.17,0,.34,0,.5a2.07,2.07,0,0,1,0,.4h-8.1a3.13,3.13,0,0,0,.3,1.1,2.82,2.82,0,0,0,.62.82,2.78,2.78,0,0,0,1.86.7,3.09,3.09,0,0,0,1.51-.39,2.09,2.09,0,0,0,1-1l2.3.64a4.71,4.71,0,0,1-1.85,2,5.78,5.78,0,0,1-3,.77Zm2.72-6.32A2.8,2.8,0,0,0,70.74,75a2.8,2.8,0,0,0-2.88-.52A2.5,2.5,0,0,0,67,75a2.61,2.61,0,0,0-.59.82,3,3,0,0,0-.27,1.06Z"/><path class="cls-3" d="M82.29,83.17a4.18,4.18,0,0,1-2.16-.55,4,4,0,0,1-1.44-1.49v6.1H76V72.49h2.34v1.8a4.25,4.25,0,0,1,1.5-1.45A4.1,4.1,0,0,1,82,72.31a4.43,4.43,0,0,1,2,.43,4.68,4.68,0,0,1,1.55,1.16,5.45,5.45,0,0,1,1,1.72,5.82,5.82,0,0,1,.37,2.09,6.53,6.53,0,0,1-.34,2.14,5.62,5.62,0,0,1-1,1.74,4.51,4.51,0,0,1-1.45,1.16,4,4,0,0,1-1.84.42Zm-.9-2.28a2.45,2.45,0,0,0,1.11-.26,2.83,2.83,0,0,0,.87-.7,3.37,3.37,0,0,0,.56-1,3.78,3.78,0,0,0,.2-1.2,3.32,3.32,0,0,0-.22-1.23,3.11,3.11,0,0,0-.61-1,2.88,2.88,0,0,0-.92-.66,2.75,2.75,0,0,0-1.15-.24,2.45,2.45,0,0,0-.78.13,2.57,2.57,0,0,0-.74.37,2.94,2.94,0,0,0-.61.56,2.34,2.34,0,0,0-.41.7v2.46a3.63,3.63,0,0,0,1.1,1.49,2.56,2.56,0,0,0,1.6.59Z"/><path class="cls-3" d="M64.94,100.59a7.29,7.29,0,0,1-.39,2.43,6,6,0,0,1-1.08,1.92,4.91,4.91,0,0,1-1.64,1.26,4.92,4.92,0,0,1-4.11,0,4.87,4.87,0,0,1-1.63-1.26A6,6,0,0,1,55,103a7.77,7.77,0,0,1,0-4.86,6,6,0,0,1,1.08-1.92A4.9,4.9,0,0,1,57.72,95a4.82,4.82,0,0,1,4.11,0,4.94,4.94,0,0,1,1.64,1.27,6,6,0,0,1,1.08,1.92,7.29,7.29,0,0,1,.39,2.43Zm-2.7,0a5.58,5.58,0,0,0-.18-1.47A3.68,3.68,0,0,0,61.55,98a2.38,2.38,0,0,0-.78-.74,1.88,1.88,0,0,0-1-.26,1.93,1.93,0,0,0-1,.26A2.38,2.38,0,0,0,58,98a3.68,3.68,0,0,0-.51,1.15,6.05,6.05,0,0,0,0,2.93,3.73,3.73,0,0,0,.51,1.14,2.49,2.49,0,0,0,.78.74,2,2,0,0,0,1,.26,2,2,0,0,0,1-.26,2.49,2.49,0,0,0,.78-.74,3.73,3.73,0,0,0,.51-1.14,5.56,5.56,0,0,0,.18-1.46Z"/><path class="cls-3" d="M73.54,101.73a3.13,3.13,0,0,1,2,1.19,3.69,3.69,0,0,1,.77,2.37A3.82,3.82,0,0,1,76,107a3.69,3.69,0,0,1-1,1.29,5.09,5.09,0,0,1-1.63.82,7.58,7.58,0,0,1-2.16.29,7.05,7.05,0,0,1-2.69-.49,5.1,5.1,0,0,1-2-1.43l1.52-1.9a3.67,3.67,0,0,0,1.24,1A4,4,0,0,0,71,107a3.06,3.06,0,0,0,1.86-.48,1.73,1.73,0,0,0,.64-1.48,1.88,1.88,0,0,0-.74-1.6,3.64,3.64,0,0,0-2.24-.56H70v-2h.62a3,3,0,0,0,1.92-.55,1.75,1.75,0,0,0,.68-1.41,1.37,1.37,0,0,0-.56-1.22,2.43,2.43,0,0,0-1.46-.4,3.21,3.21,0,0,0-2.84,1.6L66.68,97a3.14,3.14,0,0,1,.8-.83,5.36,5.36,0,0,1,1.13-.64A7.07,7.07,0,0,1,70,95.08a7.61,7.61,0,0,1,1.52-.15,6.06,6.06,0,0,1,1.86.26,4.58,4.58,0,0,1,1.45.72A3,3,0,0,1,75.75,97a3.13,3.13,0,0,1,.33,1.45,3.58,3.58,0,0,1-.18,1.14,3.3,3.3,0,0,1-.52,1,3.35,3.35,0,0,1-.81.74,2.87,2.87,0,0,1-1,.4Z"/><path class="cls-3" d="M65.19,5.53A59.67,59.67,0,1,1,5.52,65.2,59.68,59.68,0,0,1,65.19,5.53Zm0,2.13A57.54,57.54,0,1,0,122.73,65.2,57.54,57.54,0,0,0,65.19,7.66Z"/></g></g></svg>