<svg xmlns="http://www.w3.org/2000/svg" viewBox="0 0 130.4 130.4"><defs><style>.cls-1{fill:#fecc2f;}.cls-1,.cls-2{fill-rule:evenodd;}.cls-2,.cls-3{fill:#fff;}</style></defs><title>Asset 5_step4</title><g id="Layer_2" data-name="Layer 2"><g id="Content"><path class="cls-1" d="M65.2,0A65.2,65.2,0,1,1,0,65.2,65.2,65.2,0,0,1,65.2,0Z"/><path class="cls-2" d="M64.71,43.31c0,.68.5,1.08,1.48,1.22V42.09a1.76,1.76,0,0,0-1,.31,1,1,0,0,0-.43.91Z"/><path class="cls-2" d="M67.17,46.41v2.78a1.78,1.78,0,0,0,1.15-.4,1.3,1.3,0,0,0,.46-1c0-.7-.54-1.16-1.61-1.35Z"/><path class="cls-2" d="M69.75,31.86a.24.24,0,0,1,.12,0,34.61,34.61,0,0,0,1.95-3.11c1.5-2.6-2.22-2.58-5-2.58s-6.4-.07-5.07,2.58a17,17,0,0,0,2,3.14.51.51,0,0,1,.21-.06Z"/><path class="cls-2" d="M69.56,49.58a3.82,3.82,0,0,1-2.39.94v1.34h-1V50.52a3.58,3.58,0,0,1-3.45-2.62l1.56-.36a2,2,0,0,0,1.89,1.65V46.32a4.84,4.84,0,0,1-2.5-1.12,2.43,2.43,0,0,1-.58-1.63c0-1.63,1-2.57,3.08-2.82v-1h1v1A3.12,3.12,0,0,1,70,43l-1.48.31a1.55,1.55,0,0,0-1.38-1.2v2.53a19.21,19.21,0,0,1,1.92.62,2.1,2.1,0,0,1,.89.85,2.81,2.81,0,0,1,.39,1.49,2.69,2.69,0,0,1-.81,2Zm.89-15.95c-.11.49-.38.84-.7.84H63.93c-.36,0-.67-.45-.74-1C58.89,36,55.37,42.72,55.37,48c0,6.69,5.12,8.55,11.44,8.55S78.25,54.68,78.25,48c0-5.14-3.78-11.61-7.8-14.36Z"/><path class="cls-3" d="M53.18,72.49a2.74,2.74,0,0,0-.51-.38,5.73,5.73,0,0,0-.9-.47,6.21,6.21,0,0,0-1.15-.39,4.84,4.84,0,0,0-1.26-.16,2.84,2.84,0,0,0-1.7.42,1.39,1.39,0,0,0-.56,1.18,1.23,1.23,0,0,0,.21.73,1.86,1.86,0,0,0,.61.51,5.89,5.89,0,0,0,1,.4l1.41.38a16.91,16.91,0,0,1,1.89.6,5,5,0,0,1,1.44.8,3.27,3.27,0,0,1,.91,1.15,3.82,3.82,0,0,1,.32,1.65,4.07,4.07,0,0,1-.43,2,3.58,3.58,0,0,1-1.16,1.31,5.22,5.22,0,0,1-1.68.73,8.61,8.61,0,0,1-2,.23,10.67,10.67,0,0,1-3.16-.48,10,10,0,0,1-2.8-1.36l1.22-2.38a4.46,4.46,0,0,0,.65.47,12.39,12.39,0,0,0,1.11.58,9.82,9.82,0,0,0,1.42.49,6.55,6.55,0,0,0,1.6.2c1.52,0,2.28-.49,2.28-1.46a1.15,1.15,0,0,0-.26-.78,2.09,2.09,0,0,0-.74-.56,6.9,6.9,0,0,0-1.16-.44L48.28,77a13.39,13.39,0,0,1-1.77-.61,4.6,4.6,0,0,1-1.25-.78,3,3,0,0,1-.75-1,3.59,3.59,0,0,1-.25-1.41,4.37,4.37,0,0,1,.4-1.92,3.92,3.92,0,0,1,1.11-1.4A4.78,4.78,0,0,1,47.42,69a6.62,6.62,0,0,1,2-.29,7.69,7.69,0,0,1,2.76.47,9.83,9.83,0,0,1,2.2,1.11l-1.22,2.24Z"/><path class="cls-3" d="M62.88,82.43a12,12,0,0,1-1.32.48,5.56,5.56,0,0,1-1.64.24A4,4,0,0,1,58.87,83a2.52,2.52,0,0,1-.86-.45,2.29,2.29,0,0,1-.59-.8,3,3,0,0,1-.22-1.19v-6H55.82V72.49H57.2v-3.4h2.68v3.4h2.2v2.06h-2.2v5.12a1,1,0,0,0,.29.79,1.14,1.14,0,0,0,.71.23,2.52,2.52,0,0,0,.82-.14l.64-.24.54,2.12Z"/><path class="cls-3" d="M68.88,83.17a5.94,5.94,0,0,1-2.28-.43,5.14,5.14,0,0,1-2.85-2.89,5.55,5.55,0,0,1-.39-2.06,5.9,5.9,0,0,1,.38-2.11,5.1,5.1,0,0,1,1.1-1.74,5.17,5.17,0,0,1,1.75-1.19,5.73,5.73,0,0,1,2.31-.44,5.57,5.57,0,0,1,2.29.44,5.07,5.07,0,0,1,2.8,2.9,5.63,5.63,0,0,1,.37,2c0,.17,0,.34,0,.5a1.5,1.5,0,0,1,0,.4H66.2a3.13,3.13,0,0,0,.3,1.1,2.82,2.82,0,0,0,.62.82A2.91,2.91,0,0,0,68,81a2.81,2.81,0,0,0,1,.18,3.09,3.09,0,0,0,1.51-.39,2.09,2.09,0,0,0,1-1l2.3.64a4.65,4.65,0,0,1-1.85,2,5.78,5.78,0,0,1-3,.77Zm2.72-6.32A2.76,2.76,0,0,0,70.73,75a2.8,2.8,0,0,0-2.88-.52A2.5,2.5,0,0,0,67,75a2.61,2.61,0,0,0-.59.82,3,3,0,0,0-.27,1.06Z"/><path class="cls-3" d="M82.28,83.17a4.2,4.2,0,0,1-2.16-.55,4,4,0,0,1-1.44-1.49v6.1H76V72.49h2.34v1.8a4.25,4.25,0,0,1,1.5-1.45A4.12,4.12,0,0,1,82,72.31a4.43,4.43,0,0,1,2,.43,4.68,4.68,0,0,1,1.55,1.16,5.45,5.45,0,0,1,1,1.72,5.82,5.82,0,0,1,.37,2.09,6.53,6.53,0,0,1-.34,2.14,5.62,5.62,0,0,1-1,1.74,4.51,4.51,0,0,1-1.45,1.16,4,4,0,0,1-1.84.42Zm-.9-2.28a2.45,2.45,0,0,0,1.11-.26,2.83,2.83,0,0,0,.87-.7,3.37,3.37,0,0,0,.56-1,3.78,3.78,0,0,0,.2-1.2,3.32,3.32,0,0,0-.22-1.23,3.11,3.11,0,0,0-.61-1,2.88,2.88,0,0,0-.92-.66,2.75,2.75,0,0,0-1.15-.24,2.45,2.45,0,0,0-.78.13,2.57,2.57,0,0,0-.74.37,2.94,2.94,0,0,0-.61.56,2.34,2.34,0,0,0-.41.7v2.46a3.63,3.63,0,0,0,1.1,1.49,2.56,2.56,0,0,0,1.6.59Z"/><path class="cls-3" d="M64.8,100.59a7.29,7.29,0,0,1-.39,2.43,6,6,0,0,1-1.08,1.92,4.91,4.91,0,0,1-1.64,1.26,4.92,4.92,0,0,1-4.11,0A5,5,0,0,1,56,104.94,6,6,0,0,1,54.87,103a7.77,7.77,0,0,1,0-4.86A6,6,0,0,1,56,96.24,5,5,0,0,1,57.58,95a4.82,4.82,0,0,1,4.11,0,4.94,4.94,0,0,1,1.64,1.27,6,6,0,0,1,1.08,1.92,7.29,7.29,0,0,1,.39,2.43Zm-2.7,0a5.58,5.58,0,0,0-.18-1.47A3.68,3.68,0,0,0,61.41,98a2.38,2.38,0,0,0-.78-.74,1.88,1.88,0,0,0-1-.26,1.93,1.93,0,0,0-1,.26,2.38,2.38,0,0,0-.78.74,3.68,3.68,0,0,0-.51,1.15,6.05,6.05,0,0,0,0,2.93,3.73,3.73,0,0,0,.51,1.14,2.49,2.49,0,0,0,.78.74,2,2,0,0,0,1,.26,2,2,0,0,0,1-.26,2.49,2.49,0,0,0,.78-.74,3.73,3.73,0,0,0,.51-1.14,5.56,5.56,0,0,0,.18-1.46Z"/><path class="cls-3" d="M72,109v-3H66.18v-2.38l6.7-8.6H74.7v8.58h1.76V106H74.7v3Zm-3.16-5.38h3.46V99.09l-3.46,4.52Z"/><path class="cls-3" d="M65.37,5.53A59.67,59.67,0,1,1,5.7,65.2,59.68,59.68,0,0,1,65.37,5.53Zm0,2.13A57.54,57.54,0,1,0,122.91,65.2,57.54,57.54,0,0,0,65.37,7.66Z"/></g></g></svg>