<svg xmlns="http://www.w3.org/2000/svg" viewBox="0 0 130.4 130.4"><defs><style>.cls-1{fill:#e8513e;}.cls-1,.cls-4{fill-rule:evenodd;}.cls-2,.cls-3{fill:#fff;}.cls-3{opacity:0.8;}.cls-4{opacity:0.1;}</style></defs><title>Asset 7_step2</title><g id="Layer_2" data-name="Layer 2"><g id="Content"><path class="cls-1" d="M65.2,0A65.2,65.2,0,1,1,0,65.2,65.2,65.2,0,0,1,65.2,0Z"/><g id="Phone"><rect class="cls-2" x="56.7" y="26.6" width="17" height="29.58" rx="1" ry="1"/><rect class="cls-3" x="58.27" y="30.11" width="13.86" height="20.22"/><polygon class="cls-4" points="72.13 30.11 71.88 30.11 58.27 49.51 58.27 50.33 72.13 50.33 72.13 30.11"/><path class="cls-1" d="M65.2,51.69a1.74,1.74,0,1,1-1.73,1.74,1.74,1.74,0,0,1,1.73-1.74Z"/></g><path class="cls-2" d="M53.25,72.49a2.74,2.74,0,0,0-.51-.38,6.22,6.22,0,0,0-.9-.47,6.47,6.47,0,0,0-1.15-.39,4.84,4.84,0,0,0-1.26-.16,2.82,2.82,0,0,0-1.7.42,1.39,1.39,0,0,0-.56,1.18,1.23,1.23,0,0,0,.21.73,1.86,1.86,0,0,0,.61.51,5.58,5.58,0,0,0,1,.4l1.41.38a17.6,17.6,0,0,1,1.89.6,5,5,0,0,1,1.44.8,3.27,3.27,0,0,1,.91,1.15A3.82,3.82,0,0,1,55,78.91a4.07,4.07,0,0,1-.43,2,3.67,3.67,0,0,1-1.16,1.31,5.32,5.32,0,0,1-1.68.73,8.61,8.61,0,0,1-2,.23,10.67,10.67,0,0,1-3.16-.48,10,10,0,0,1-2.8-1.36L45,78.91a4.46,4.46,0,0,0,.65.47,11.15,11.15,0,0,0,1.11.58,9.82,9.82,0,0,0,1.42.49,6.55,6.55,0,0,0,1.6.2c1.52,0,2.28-.49,2.28-1.46a1.2,1.2,0,0,0-.26-.78,2.09,2.09,0,0,0-.74-.56,6.9,6.9,0,0,0-1.16-.44L48.35,77a13.39,13.39,0,0,1-1.77-.61,4.6,4.6,0,0,1-1.25-.78,3,3,0,0,1-.75-1,3.59,3.59,0,0,1-.25-1.41,4.37,4.37,0,0,1,.4-1.92,3.92,3.92,0,0,1,1.11-1.4A4.78,4.78,0,0,1,47.49,69a6.62,6.62,0,0,1,2-.29,7.69,7.69,0,0,1,2.76.47,10.05,10.05,0,0,1,2.2,1.11l-1.22,2.24Z"/><path class="cls-2" d="M63,82.43a12,12,0,0,1-1.32.48,5.56,5.56,0,0,1-1.64.24A4,4,0,0,1,58.94,83a2.52,2.52,0,0,1-.86-.45,2.29,2.29,0,0,1-.59-.8,2.87,2.87,0,0,1-.22-1.19v-6H55.89V72.49h1.38v-3.4H60v3.4h2.2v2.06H60v5.12a1,1,0,0,0,.29.79,1.12,1.12,0,0,0,.71.23,2.57,2.57,0,0,0,.82-.14l.64-.24L63,82.43Z"/><path class="cls-2" d="M69,83.17a5.94,5.94,0,0,1-2.28-.43,5.14,5.14,0,0,1-2.85-2.89,5.55,5.55,0,0,1-.39-2.06,5.9,5.9,0,0,1,.38-2.11,5.1,5.1,0,0,1,1.1-1.74,5.17,5.17,0,0,1,1.75-1.19A5.73,5.73,0,0,1,69,72.31a5.57,5.57,0,0,1,2.29.44A5.12,5.12,0,0,1,73,73.93a5,5,0,0,1,1.08,1.72,5.63,5.63,0,0,1,.37,2c0,.17,0,.34,0,.5a2.07,2.07,0,0,1,0,.4h-8.1a3.13,3.13,0,0,0,.3,1.1,2.82,2.82,0,0,0,.62.82,2.78,2.78,0,0,0,1.86.7,3.09,3.09,0,0,0,1.51-.39,2.09,2.09,0,0,0,1-1l2.3.64a4.71,4.71,0,0,1-1.85,2,5.78,5.78,0,0,1-3,.77Zm2.72-6.32A2.8,2.8,0,0,0,70.8,75a2.63,2.63,0,0,0-1.87-.71,2.59,2.59,0,0,0-1,.19,2.5,2.5,0,0,0-.83.53,2.61,2.61,0,0,0-.59.82,3,3,0,0,0-.27,1.06Z"/><path class="cls-2" d="M82.35,83.17a4.18,4.18,0,0,1-2.16-.55,4,4,0,0,1-1.44-1.49v6.1H76.07V72.49h2.34v1.8a4.25,4.25,0,0,1,1.5-1.45A4.1,4.1,0,0,1,82,72.31a4.43,4.43,0,0,1,2,.43,4.68,4.68,0,0,1,1.55,1.16,5.45,5.45,0,0,1,1,1.72,5.82,5.82,0,0,1,.37,2.09,6.53,6.53,0,0,1-.34,2.14,5.62,5.62,0,0,1-1,1.74,4.51,4.51,0,0,1-1.45,1.16,4,4,0,0,1-1.84.42Zm-.9-2.28a2.45,2.45,0,0,0,1.11-.26,2.83,2.83,0,0,0,.87-.7,3.37,3.37,0,0,0,.56-1,3.78,3.78,0,0,0,.2-1.2A3.32,3.32,0,0,0,84,76.48a3.11,3.11,0,0,0-.61-1,2.88,2.88,0,0,0-.92-.66,2.75,2.75,0,0,0-1.15-.24,2.45,2.45,0,0,0-.78.13,2.57,2.57,0,0,0-.74.37,2.94,2.94,0,0,0-.61.56,2.15,2.15,0,0,0-.41.7v2.46a3.63,3.63,0,0,0,1.1,1.49,2.54,2.54,0,0,0,1.6.59Z"/><path class="cls-2" d="M64.94,100.59a7.29,7.29,0,0,1-.39,2.43,6,6,0,0,1-1.08,1.92,4.91,4.91,0,0,1-1.64,1.26,4.92,4.92,0,0,1-4.11,0,4.87,4.87,0,0,1-1.63-1.26A6,6,0,0,1,55,103a7.77,7.77,0,0,1,0-4.86,6,6,0,0,1,1.08-1.92A4.9,4.9,0,0,1,57.72,95a4.82,4.82,0,0,1,4.11,0,4.94,4.94,0,0,1,1.64,1.27,6,6,0,0,1,1.08,1.92,7.29,7.29,0,0,1,.39,2.43Zm-2.7,0a5.58,5.58,0,0,0-.18-1.47A3.68,3.68,0,0,0,61.55,98a2.38,2.38,0,0,0-.78-.74,1.88,1.88,0,0,0-1-.26,1.93,1.93,0,0,0-1,.26A2.38,2.38,0,0,0,58,98a3.68,3.68,0,0,0-.51,1.15,6.05,6.05,0,0,0,0,2.93,3.73,3.73,0,0,0,.51,1.14,2.49,2.49,0,0,0,.78.74,2,2,0,0,0,1,.26,2,2,0,0,0,1-.26,2.49,2.49,0,0,0,.78-.74,3.73,3.73,0,0,0,.51-1.14,5.56,5.56,0,0,0,.18-1.46Z"/><path class="cls-2" d="M66.68,106.45a8.92,8.92,0,0,1,.14-1.63,4.36,4.36,0,0,1,.49-1.35,4.3,4.3,0,0,1,1-1.16,8.34,8.34,0,0,1,1.55-1.06l1.45-.77c.42-.22.77-.43,1-.61A2.83,2.83,0,0,0,73,99.3a1.08,1.08,0,0,0,.22-.67,1.33,1.33,0,0,0-.48-1,2,2,0,0,0-1.38-.43,2.75,2.75,0,0,0-.88.13,2.86,2.86,0,0,0-.75.35,3.87,3.87,0,0,0-.64.49,5.68,5.68,0,0,0-.53.57l-1.72-2a4.21,4.21,0,0,1,.74-.61,7,7,0,0,1,1.13-.62A7.15,7.15,0,0,1,70.11,95a7.06,7.06,0,0,1,1.69-.19,6,6,0,0,1,1.82.25,3.93,3.93,0,0,1,1.35.7,2.93,2.93,0,0,1,.84,1.08,3.27,3.27,0,0,1,.29,1.37,2.89,2.89,0,0,1-.26,1.24,3.57,3.57,0,0,1-.66,1,5.43,5.43,0,0,1-.87.73c-.31.2-.62.39-.91.55l-.82.46a9.81,9.81,0,0,0-.91.57,7.9,7.9,0,0,0-.83.64,2.83,2.83,0,0,0-.58.65h6.06v2.42Z"/><path class="cls-2" d="M65.2,5.53A59.67,59.67,0,1,1,5.53,65.2,59.68,59.68,0,0,1,65.2,5.53Zm0,2.13A57.54,57.54,0,1,0,122.74,65.2,57.54,57.54,0,0,0,65.2,7.66Z"/></g></g></svg>