<svg xmlns="http://www.w3.org/2000/svg" viewBox="0 0 764.73 685.9"><defs><style>.cls-1{fill:#efefef;}.cls-2{fill:#154f77;}.cls-3{fill:#0d3858;}.cls-4{fill:#fffefe;}.cls-20,.cls-21,.cls-4,.cls-41{fill-rule:evenodd;}.cls-22,.cls-41,.cls-5{opacity:0.1;}.cls-6{fill:#aec647;}.cls-7{fill:#f3ae1b;}.cls-8{fill:#df3f11;}.cls-9{fill:#bcdede;}.cls-10{fill:#c84119;}.cls-11{fill:#6bb5ce;}.cls-12{fill:#00d0e5;}.cls-13{fill:#ff81ed;}.cls-14{fill:#00c982;}.cls-15{opacity:0.7;}.cls-16,.cls-40{opacity:0.4;}.cls-17,.cls-20{fill:#0b2e44;}.cls-18,.cls-21,.cls-22,.cls-40,.cls-44{fill:#fff;}.cls-18{opacity:0.8;}.cls-19{fill:#424242;}.cls-21,.cls-33{opacity:0.2;}.cls-23{fill:#d0edfa;}.cls-24{fill:#ff651f;}.cls-25{fill:#0051c4;}.cls-26{fill:#e46400;}.cls-27{fill:#c0003b;}.cls-28{fill:#ffea50;}.cls-29{fill:#ff2c0d;}.cls-30{fill:#ff1a2c;}.cls-31{fill:#ff2c4d;}.cls-32{fill:#ffd74c;}.cls-34{fill:#4c4c4b;}.cls-35{fill:#6cd2ea;}.cls-36{fill:#f7674f;}.cls-37{fill:#fff064;}.cls-38{fill:#4f4e4f;}.cls-39{fill:#1e2f47;}.cls-42{fill:#bababa;}.cls-43{fill:#f9b946;}.cls-44{opacity:0.5;}</style></defs><title>Asset 5_application-development</title><g id="Layer_2" data-name="Layer 2"><g id="Web_Development" data-name="Web &amp; Development"><g id="Application_Development" data-name="Application Development"><g id="Application_Development-2" data-name="Application Development"><g id="Line"><polygon class="cls-1" points="311.56 392.96 202.3 392.96 202.3 330.42 77.64 330.42 77.64 325.42 207.3 325.42 207.3 387.96 311.56 387.96 311.56 392.96"/><polygon class="cls-1" points="348.19 367.53 343.19 367.53 343.19 301.7 295.01 301.7 295.01 183.89 300.01 183.89 300.01 296.7 348.19 296.7 348.19 367.53"/><polygon class="cls-1" points="429.9 383.9 429.9 283.07 666.07 283.07 666.07 288.07 434.9 288.07 434.96 379.9 488.67 379.9 488.67 383.9 429.9 383.9"/><polygon class="cls-1" points="625.56 499.4 517.59 499.4 517.59 462.43 478.27 433.39 429.9 433.39 429.9 381.9 434.9 381.9 434.9 428.39 479.91 428.39 522.59 459.9 522.59 494.4 625.56 494.4 625.56 499.4"/><rect class="cls-1" x="353.6" y="379.9" width="76.31" height="4"/></g><g id="Coding"><rect class="cls-2" x="195.62" width="317.38" height="207.38" rx="14.43" ry="14.43"/><rect class="cls-3" x="209.8" y="13.68" width="290.24" height="179.21"/><path class="cls-4" d="M133.56,206.32a26.9,26.9,0,0,0-.29,4c0,11.4,6.91,20.64,15.44,20.64H561.13c8.53,0,15.44-9.24,15.44-20.64a26.9,26.9,0,0,0-.29-4Z"/><path class="cls-5" d="M134.59,218.62c2.4,7.23,7.81,12.29,14.12,12.29H561.13c6.3,0,11.72-5.06,14.12-12.29Z"/><rect class="cls-6" x="224.84" y="30.47" width="72.67" height="3.61"/><rect class="cls-7" x="224.84" y="41.31" width="72.67" height="3.61"/><rect class="cls-8" x="224.84" y="51.34" width="72.67" height="3.61"/><rect class="cls-6" x="224.84" y="144.62" width="72.67" height="3.61"/><rect class="cls-6" x="224.84" y="132.71" width="72.67" height="3.61"/><rect class="cls-6" x="224.84" y="156.93" width="72.67" height="3.61"/><rect class="cls-7" x="311.56" y="74.23" width="72.67" height="3.61"/><rect class="cls-6" x="234.88" y="74.23" width="72.67" height="3.61"/><rect class="cls-7" x="234.88" y="84.27" width="72.67" height="3.61"/><rect class="cls-6" x="311.56" y="84.27" width="34.13" height="3.61"/><rect class="cls-6" x="234.88" y="103.69" width="72.67" height="3.61"/><rect class="cls-7" x="311.56" y="103.69" width="34.13" height="3.61"/><rect class="cls-7" x="398.28" y="93.9" width="34.13" height="3.61"/><rect class="cls-9" x="234.88" y="62.59" width="156.98" height="3.61"/><rect class="cls-9" x="234.88" y="93.9" width="156.98" height="3.61"/><rect class="cls-6" x="398.28" y="115.18" width="34.13" height="3.61"/><rect class="cls-6" x="234.88" y="115.18" width="156.98" height="3.61"/><rect class="cls-10" x="388.24" y="166.97" width="34.13" height="3.61"/><rect class="cls-11" x="224.84" y="166.97" width="156.98" height="3.61"/><path class="cls-12" d="M228.69,212.47a2.86,2.86,0,1,1-2.86-2.86A2.86,2.86,0,0,1,228.69,212.47Z"/><path class="cls-13" d="M210.52,212.47a2.86,2.86,0,1,1-2.86-2.86A2.86,2.86,0,0,1,210.52,212.47Z"/><path class="cls-14" d="M219.45,212.47a2.86,2.86,0,1,1-2.86-2.86A2.86,2.86,0,0,1,219.45,212.47Z"/><path class="cls-15" d="M200.58,212.47a2.61,2.61,0,0,1-2.61,2.61H175.69a2.61,2.61,0,0,1-2.61-2.61h0a2.61,2.61,0,0,1,2.61-2.61H198a2.61,2.61,0,0,1,2.61,2.61Z"/><path class="cls-16" d="M359.14,6.78a4.23,4.23,0,1,1-4.22-4.22A4.22,4.22,0,0,1,359.14,6.78Z"/></g><g id="Phone"><rect class="cls-17" y="297.66" width="137.36" height="239" rx="8.1" ry="8.1"/><rect class="cls-18" x="12.67" y="326.02" width="112.02" height="163.38"/><g id="Setting"><path class="cls-19" d="M59.31,406.77a18.83,18.83,0,1,1-18.83-18.83A18.83,18.83,0,0,1,59.31,406.77Z"/><path class="cls-7" d="M57.9,405.64a18.83,18.83,0,1,1-18.82-18.82A18.83,18.83,0,0,1,57.9,405.64Z"/><path class="cls-20" d="M40.46,393.19H37.92a.25.25,0,0,0-.25.25v1.32a10.11,10.11,0,0,0-4.41,1.76L32,395.28a.24.24,0,0,0-.35,0l-1.79,1.8a.24.24,0,0,0,0,.35l1.18,1.18a11.23,11.23,0,0,0-1.92,3.64l-1.7-.3a.26.26,0,0,0-.29.2l-.44,2.51a.24.24,0,0,0,.2.28l1.73.31v.39a11.49,11.49,0,0,0,.38,3l-1.56.73a.24.24,0,0,0-.12.33L28.4,412a.24.24,0,0,0,.33.12l1.45-.67a10.82,10.82,0,0,0,2.24,2.7l-.73,1.26a.25.25,0,0,0,.1.33L34,417a.25.25,0,0,0,.34-.09l.65-1.13a10.06,10.06,0,0,0,3.55.86l.11,1.26a.25.25,0,0,0,.26.23l2.54-.23a.24.24,0,0,0,.22-.26l-.11-1.29a10.46,10.46,0,0,0,3.27-1.5l.94,1.12a.25.25,0,0,0,.35,0l2-1.63a.26.26,0,0,0,0-.35l-1-1.24a11.29,11.29,0,0,0,1.7-2.94l1.74.47a.25.25,0,0,0,.3-.18l.66-2.46a.25.25,0,0,0-.18-.3l-1.81-.48a9.87,9.87,0,0,0,.07-1.22,11.72,11.72,0,0,0-.19-2.07l1.77-.65a.24.24,0,0,0,.15-.31l-.87-2.4a.25.25,0,0,0-.32-.14l-1.67.61a11.17,11.17,0,0,0-1.93-2.8l.94-1.34a.25.25,0,0,0-.06-.34l-2.09-1.46a.24.24,0,0,0-.34.06l-.84,1.2a10.15,10.15,0,0,0-3.37-1.21v-1.35a.25.25,0,0,0-.25-.25Zm-1.38,7.12a5.34,5.34,0,1,1-5.34,5.33,5.33,5.33,0,0,1,5.34-5.33Z"/><path class="cls-21" d="M39.08,398.25a7.4,7.4,0,1,1-7.4,7.39,7.39,7.39,0,0,1,7.4-7.39Zm0,2.06a5.34,5.34,0,1,1-5.34,5.33,5.33,5.33,0,0,1,5.34-5.33Z"/><path class="cls-22" d="M51.27,407.34l-1.81-.48a9.87,9.87,0,0,0,.07-1.22,11.72,11.72,0,0,0-.19-2.07l1.77-.65a.24.24,0,0,0,.15-.31l-.87-2.4a.25.25,0,0,0-.32-.14l-1.67.61a11.17,11.17,0,0,0-1.93-2.8l.94-1.34a.25.25,0,0,0-.06-.34l-2.09-1.46a.24.24,0,0,0-.34.06l-.84,1.2a10.15,10.15,0,0,0-3.37-1.21v-1.35a.25.25,0,0,0-.25-.25H39.08v7.12a5.34,5.34,0,0,1,0,10.67v7.1l2.36-.21a.24.24,0,0,0,.22-.26l-.11-1.29a10.46,10.46,0,0,0,3.27-1.5l.94,1.12a.25.25,0,0,0,.35,0l2-1.63a.26.26,0,0,0,0-.35l-1-1.24a11.29,11.29,0,0,0,1.7-2.94l1.74.47a.25.25,0,0,0,.3-.18l.66-2.46A.25.25,0,0,0,51.27,407.34Z"/></g><g id="Game"><circle class="cls-19" cx="80.37" cy="386.31" r="18.83" transform="translate(-249.62 169.98) rotate(-45)"/><path class="cls-23" d="M97.76,385a18.83,18.83,0,1,1-18.83-18.82A18.83,18.83,0,0,1,97.76,385Z"/><g id="Rocket"><path class="cls-24" d="M86.74,377s-11-2.85-17.26,7.26l2.16,3.14,2.16,3.13C85.48,388.26,86.74,377,86.74,377Z"/><path class="cls-25" d="M71.8,387.59l0-.07-2.28-3.3a5.53,5.53,0,0,0-.23,2.43l1.22,1.76,0,.07L71.57,390a5.13,5.13,0,0,0,2.22.46Z"/><rect class="cls-26" x="69.3" y="386.58" width="1.15" height="3.96" transform="translate(-207.99 108.11) rotate(-34.54)"/><rect class="cls-27" x="68.92" y="387.48" width="0.54" height="3.13" transform="matrix(0.82, -0.57, 0.57, 0.82, -208.5, 107.92)"/><polygon class="cls-28" points="74.11 380.35 67.31 380.23 70.55 384.6 74.11 380.35"/><polygon class="cls-28" points="79.19 387.04 76.87 393.44 73.94 388.85 79.19 387.04"/><path class="cls-29" d="M85.75,380.58a16.13,16.13,0,0,0,1-3.62,16,16,0,0,0-3.74-.37Z"/><polygon class="cls-30" points="65.21 391.78 67.83 391.57 70.45 391.36 68.96 389.19 67.47 387.03 66.34 389.4 65.21 391.78"/><polygon class="cls-31" points="66.29 390.96 68.16 390.85 70.03 390.74 68.93 389.14 67.83 387.54 67.06 389.25 66.29 390.96"/><polygon class="cls-32" points="67.66 389.99 68.66 390.1 69.66 390.21 68.91 389.12 68.16 388.03 67.91 389.01 67.66 389.99"/><path class="cls-33" d="M85.75,380.58h0a16.08,16.08,0,0,0,1-3.46h0c0-.06,0-.11,0-.13h-.08L65.26,391.67l-.05.11,2.62-.21,2.63-.21-.43-.62-.18-.26.44-.3.24.34.94-.65.1.15a5.13,5.13,0,0,0,2.22.46h0c.36-.07.71-.14,1-.23l2,3.18,1.65-4.57A15.65,15.65,0,0,0,85.75,380.58Z"/></g><path class="cls-34" d="M77.23,394.77a1.66,1.66,0,0,0-.32,0,2.9,2.9,0,0,0-2.66-2.4A2.65,2.65,0,0,0,72,393.8a2.39,2.39,0,0,0-3.43,2.11,2.48,2.48,0,0,0,.06.54h9.95a1.75,1.75,0,0,0,0-.32A1.37,1.37,0,0,0,77.23,394.77Z"/><path class="cls-35" d="M76.56,394.77a1.63,1.63,0,0,0-.31,0,2.9,2.9,0,0,0-2.66-2.4,2.65,2.65,0,0,0-2.26,1.4,2.4,2.4,0,0,0-3.44,2.11,2.5,2.5,0,0,0,.07.54h10a1.75,1.75,0,0,0,0-.32A1.37,1.37,0,0,0,76.56,394.77Z"/><path class="cls-33" d="M76.56,394.77a1.63,1.63,0,0,0-.31,0,2.9,2.9,0,0,0-2.66-2.4h-.12v4.05h4.44a1.75,1.75,0,0,0,0-.32A1.37,1.37,0,0,0,76.56,394.77Z"/><path class="cls-34" d="M80.92,372.82a1.86,1.86,0,0,0-.48.06,4.36,4.36,0,0,0-4-3.63A4,4,0,0,0,73,371.36a3.61,3.61,0,0,0-1.59-.36,3.56,3.56,0,0,0-3.58,3.54,3.75,3.75,0,0,0,.09.82H83a2.52,2.52,0,0,0,0-.48A2.07,2.07,0,0,0,80.92,372.82Z"/><path class="cls-35" d="M79.92,372.82a1.91,1.91,0,0,0-.48.06,4.36,4.36,0,0,0-4-3.63A4,4,0,0,0,72,371.36a3.67,3.67,0,0,0-1.59-.36,3.56,3.56,0,0,0-3.59,3.54,3.75,3.75,0,0,0,.09.82H82a1.91,1.91,0,0,0,.06-.48A2.08,2.08,0,0,0,79.92,372.82Z"/><path class="cls-33" d="M79.92,372.82a1.91,1.91,0,0,0-.48.06,4.36,4.36,0,0,0-4-3.63h-.18v6.1H82a1.91,1.91,0,0,0,.06-.48A2.08,2.08,0,0,0,79.92,372.82Z"/><path class="cls-34" d="M95.09,387.8a1.51,1.51,0,0,0-.42.05,3.74,3.74,0,0,0-3.44-3.12,3.46,3.46,0,0,0-2.93,1.81,3.09,3.09,0,0,0-4.44,2.73,3.19,3.19,0,0,0,.08.7H96.83a1.83,1.83,0,0,0,0-.4A1.78,1.78,0,0,0,95.09,387.8Z"/><path class="cls-35" d="M94.23,387.8a1.4,1.4,0,0,0-.41.05,3.75,3.75,0,0,0-3.45-3.12,3.45,3.45,0,0,0-2.92,1.81,3.13,3.13,0,0,0-1.37-.31,3.06,3.06,0,0,0-3.08,3,3.19,3.19,0,0,0,.08.7H96a1.37,1.37,0,0,0,0-.4A1.78,1.78,0,0,0,94.23,387.8Z"/><path class="cls-33" d="M94.23,387.8a1.4,1.4,0,0,0-.41.05,3.75,3.75,0,0,0-3.45-3.12h-.15V390H96a1.37,1.37,0,0,0,0-.4A1.78,1.78,0,0,0,94.23,387.8Z"/></g><g id="Idea"><path class="cls-19" d="M93.77,431.42A18.83,18.83,0,1,1,75,412.59,18.83,18.83,0,0,1,93.77,431.42Z"/><path class="cls-36" d="M92.17,430.33a18.83,18.83,0,1,1-18.82-18.82A18.83,18.83,0,0,1,92.17,430.33Z"/><g id="Lamp"><path class="cls-37" d="M73.39,426a5.7,5.7,0,0,0-6.07,6.12c0,2.4,3.32,7.38,3.32,7.38h5.49s3.32-5,3.32-7.38A5.69,5.69,0,0,0,73.39,426Z"/><path class="cls-38" d="M74.15,439.68a17.68,17.68,0,0,1-.27-3.24,4.83,4.83,0,0,1,.15-1.38,1.41,1.41,0,0,1-.46,0,.4.4,0,0,1-.26-.14,1.07,1.07,0,0,1-.53.2l.06.09c.43.67.16,4.31.15,4.46h-.17c.07-1,.21-3.84-.12-4.35l-.12-.17h-.13c-.35,0-.37-.12-.38-.15a.23.23,0,0,1,.14-.23c.09,0,.24,0,.44.2a1.61,1.61,0,0,0,.37-.07.68.68,0,0,0,.21-.12h0a.53.53,0,0,1,.15-.46.15.15,0,0,1,.13,0c.06.05.07.13,0,.29a.47.47,0,0,1-.11.21.24.24,0,0,0,.17.09,1.26,1.26,0,0,0,.52,0,.54.54,0,0,1,.2-.24.38.38,0,0,1,.34,0l.1.06-.08.08a1.18,1.18,0,0,1-.44.26,3.73,3.73,0,0,0-.19,1.43,17.17,17.17,0,0,0,.27,3.2Zm-1.9-4.74.15,0c-.06,0-.1,0-.13,0Z"/><path class="cls-39" d="M70.64,439.52v2.89a.68.68,0,0,0,.66.69h4.18a.67.67,0,0,0,.65-.69v-2.89Z"/><path class="cls-22" d="M76.13,440a.19.19,0,0,1-.21.18H70.85a.2.2,0,0,1-.21-.18h0a.21.21,0,0,1,.21-.19h5.07a.2.2,0,0,1,.21.19Z"/><path class="cls-22" d="M76.13,440.7a.2.2,0,0,1-.21.19H70.85a.21.21,0,0,1-.21-.19h0a.2.2,0,0,1,.21-.18h5.07a.19.19,0,0,1,.21.18Z"/><path class="cls-22" d="M76.13,441.45a.19.19,0,0,1-.21.18H70.85a.2.2,0,0,1-.21-.18h0a.2.2,0,0,1,.21-.19h5.07a.2.2,0,0,1,.21.19Z"/><path class="cls-22" d="M76.13,442.19a.2.2,0,0,1-.21.19H70.85a.21.21,0,0,1-.21-.19h0a.21.21,0,0,1,.21-.19h5.07a.2.2,0,0,1,.21.19Z"/><path class="cls-5" d="M76.13,440.33a.2.2,0,0,1-.21.19H70.85a.21.21,0,0,1-.21-.19h0a.21.21,0,0,1,.21-.19h5.07a.2.2,0,0,1,.21.19Z"/><path class="cls-5" d="M76.13,441.07a.2.2,0,0,1-.21.19H70.85a.2.2,0,0,1-.21-.19h0a.2.2,0,0,1,.21-.18h5.07a.19.19,0,0,1,.21.18Z"/><path class="cls-5" d="M76.13,441.82a.19.19,0,0,1-.21.18H70.85a.2.2,0,0,1-.21-.18h0a.21.21,0,0,1,.21-.19h5.07a.2.2,0,0,1,.21.19Z"/><path class="cls-5" d="M76.13,442.56a.2.2,0,0,1-.21.19H70.85a.21.21,0,0,1-.21-.19h0a.2.2,0,0,1,.21-.18h5.07a.19.19,0,0,1,.21.18Z"/><path class="cls-5" d="M75.1,426.22c.86,1.94,2.9,7.67-.15,13.31h1.18s3.32-5,3.32-7.38C79.44,428,76.9,426.64,75.1,426.22Z"/><path class="cls-40" d="M70.49,431c.12.33-.19.73-.68.9s-1,.05-1.1-.27.19-.73.69-.9S70.38,430.68,70.49,431Z"/><path class="cls-40" d="M72.55,428.29c.22.62-.37,1.4-1.32,1.73s-1.9.1-2.12-.53.37-1.4,1.32-1.73S72.33,427.66,72.55,428.29Z"/><polygon class="cls-37" points="64.08 420.81 64.27 420.64 69.39 425.85 69.2 426.02 64.08 420.81"/><polygon class="cls-37" points="58.54 428.15 58.58 427.91 65.94 428.85 65.9 429.1 58.54 428.15"/><polygon class="cls-37" points="58.84 435.11 58.78 434.87 66.06 433.45 66.11 433.7 58.84 435.11"/><polygon class="cls-37" points="82.1 420.81 81.91 420.64 76.8 425.85 76.99 426.02 82.1 420.81"/><polygon class="cls-37" points="88.15 428.54 88.11 428.3 80.75 429.24 80.79 429.48 88.15 428.54"/><polygon class="cls-37" points="87.65 434.53 87.7 434.29 80.42 432.87 80.37 433.12 87.65 434.53"/><polygon class="cls-37" points="73.56 424.63 73.3 424.63 73.16 417.57 73.42 417.56 73.56 424.63"/></g></g><polygon class="cls-41" points="124.69 326.02 122.61 326.02 12.67 482.81 12.67 489.4 124.69 489.4 124.69 326.02"/></g><g id="Button"><path class="cls-17" d="M390.48,394.52a54.41,54.41,0,1,1-54.41-54.4A54.41,54.41,0,0,1,390.48,394.52Z"/><path class="cls-42" d="M376.48,394.52a40.41,40.41,0,1,1-40.41-40.4A40.41,40.41,0,0,1,376.48,394.52Z"/><path class="cls-17" d="M363.06,394.52a27,27,0,1,1-27-27A27,27,0,0,1,363.06,394.52Z"/></g><g id="Push"><path class="cls-43" d="M277.29,526.12l.54,80.2s34.72,35.17,45.22,53.74,29.88,25.84,30.69,25.84H468.39s28.26-8.07,29.07-46.83V507.46s-17.23-33-33.91,0h-10.5V487.27s-20.18-31.49-37.95,0v18.57H404.6V473.28s-20.18-35-37.14,0v32.56h-11.3V407.33s-17.77-37.95-35.53,0V601.21s-5-4.84-8.21-16.15l-3.1-38S299.9,508.15,277.29,526.12Z"/><path class="cls-5" d="M332.74,391.8c-3.89,2.07-8,6.75-12.11,15.53V603.54l12.11-.44Z"/><path class="cls-5" d="M371.29,466.63a49.55,49.55,0,0,0-3.83,6.65v32.56h-11.3V407.33a48,48,0,0,0-2.56-4.56v108h17.69Z"/><path class="cls-5" d="M417.59,483.32a46.69,46.69,0,0,0-2.49,3.95v18.57H404.6V473.28a45.67,45.67,0,0,0-3.82-5.42v40.29h16.81Z"/><path class="cls-5" d="M463.55,507.46h-10.5V487.27a40.24,40.24,0,0,0-3.27-4.24v27.75H467V501.5A51.47,51.47,0,0,0,463.55,507.46Z"/><path class="cls-40" d="M284.56,539.85c-.81-10.09-7.25-11.31-7.25-11.31l.13,19.78h7.12Z"/><path class="cls-44" d="M338.21,397.64c-5.93,0-10.75,5.74-10.75,12.81H349C349,403.38,344.15,397.64,338.21,397.64Z"/></g><g id="Setting-2" data-name="Setting"><circle class="cls-19" cx="555.7" cy="385.9" r="67.02"/><circle class="cls-7" cx="550.7" cy="381.9" r="67.02"/><path class="cls-20" d="M555.63,337.57h-9a.88.88,0,0,0-.88.88v4.7A36.12,36.12,0,0,0,530,349.42L525.55,345a.88.88,0,0,0-1.24,0l-6.41,6.4a.88.88,0,0,0,0,1.24l4.22,4.22a39.76,39.76,0,0,0-6.82,13l-6.08-1.08a.9.9,0,0,0-1,.71l-1.56,8.92a.86.86,0,0,0,.7,1l6.17,1.09c0,.47,0,.94,0,1.42a41.38,41.38,0,0,0,1.35,10.52l-5.56,2.6a.89.89,0,0,0-.43,1.16l3.83,8.21a.89.89,0,0,0,1.17.43l5.16-2.41a39.06,39.06,0,0,0,8,9.62l-2.59,4.47a.86.86,0,0,0,.33,1.19l7.84,4.54a.88.88,0,0,0,1.2-.33l2.33-4A35.72,35.72,0,0,0,548.74,421l.39,4.48a.88.88,0,0,0,1,.8l9-.79a.88.88,0,0,0,.8-.95l-.4-4.59a36.25,36.25,0,0,0,11.64-5.33l3.35,4a.87.87,0,0,0,1.23.11l6.94-5.82a.87.87,0,0,0,.11-1.23l-3.7-4.43a39.68,39.68,0,0,0,6.06-10.46l6.2,1.66a.88.88,0,0,0,1.07-.62l2.34-8.75a.87.87,0,0,0-.62-1.07l-6.45-1.73a41,41,0,0,0,.23-4.31,41.74,41.74,0,0,0-.66-7.4l6.31-2.3a.87.87,0,0,0,.52-1.12l-3.1-8.51a.87.87,0,0,0-1.12-.53l-6,2.17a39.17,39.17,0,0,0-6.88-10l3.34-4.77a.89.89,0,0,0-.21-1.23l-7.43-5.2a.86.86,0,0,0-1.21.22l-3,4.27a36.2,36.2,0,0,0-12-4.29v-4.82a.89.89,0,0,0-.88-.88Zm-4.94,25.34a19,19,0,1,1-19,19,19,19,0,0,1,19-19Z"/><path class="cls-21" d="M550.69,355.58a26.32,26.32,0,1,1-26.31,26.33,26.32,26.32,0,0,1,26.31-26.33Zm0,7.33a19,19,0,1,1-19,19,19,19,0,0,1,19-19Z"/><path class="cls-22" d="M594.12,388l-6.45-1.73a41,41,0,0,0,.23-4.31,41.74,41.74,0,0,0-.66-7.4l6.31-2.3a.87.87,0,0,0,.52-1.12l-3.1-8.51a.87.87,0,0,0-1.12-.53l-6,2.17a39.17,39.17,0,0,0-6.88-10l3.34-4.77a.89.89,0,0,0-.21-1.23l-7.43-5.2a.86.86,0,0,0-1.21.22l-3,4.27a36.2,36.2,0,0,0-12-4.29v-4.82a.89.89,0,0,0-.88-.88H550.7v25.34a19,19,0,0,1,0,38v25.28l8.4-.74a.88.88,0,0,0,.8-.95l-.4-4.59a36.25,36.25,0,0,0,11.64-5.33l3.35,4a.87.87,0,0,0,1.23.11l6.94-5.82a.87.87,0,0,0,.11-1.23l-3.7-4.43a39.68,39.68,0,0,0,6.06-10.46l6.2,1.66a.88.88,0,0,0,1.07-.62l2.34-8.75A.87.87,0,0,0,594.12,388Z"/></g><g id="Game-2" data-name="Game"><circle class="cls-19" cx="697.71" cy="313.08" r="67.02" transform="translate(-17.03 585.06) rotate(-45)"/><path class="cls-23" d="M759.61,308.46a67,67,0,1,1-67-67A67,67,0,0,1,759.61,308.46Z"/><g id="Rocket-2" data-name="Rocket"><path class="cls-24" d="M720.37,279.79s-39.19-10.16-61.44,25.85l7.69,11.16L674.31,328C715.88,320,720.37,279.79,720.37,279.79Z"/><path class="cls-25" d="M667.2,317.64l-.17-.25-8.1-11.75s-1.75,5.58-.8,8.64l4.32,6.27.17.25,3.77,5.47c2.3,1.66,7.9,1.66,7.9,1.66Z"/><rect class="cls-26" x="658.31" y="314.05" width="4.08" height="14.1" transform="matrix(0.82, -0.57, 0.57, 0.82, -65.64, 431.15)"/><rect class="cls-27" x="656.92" y="317.23" width="1.91" height="11.13" transform="matrix(0.82, -0.57, 0.57, 0.82, -67.01, 430.18)"/><polygon class="cls-28" points="675.44 291.85 651.2 291.42 662.75 306.98 675.44 291.85"/><polygon class="cls-28" points="693.49 315.66 685.25 338.46 674.82 322.12 693.49 315.66"/><path class="cls-29" d="M716.86,292.67a56.29,56.29,0,0,0,3.51-12.88,55.9,55.9,0,0,0-13.29-1.32Z"/><polygon class="cls-30" points="643.73 332.54 653.07 331.79 662.4 331.05 657.09 323.34 651.78 315.63 647.76 324.08 643.73 332.54"/><polygon class="cls-31" points="647.59 329.62 654.24 329.23 660.89 328.85 656.97 323.15 653.05 317.46 650.32 323.54 647.59 329.62"/><polygon class="cls-32" points="652.44 326.16 656.01 326.56 659.59 326.96 656.92 323.08 654.25 319.2 653.34 322.68 652.44 326.16"/><path class="cls-33" d="M716.86,292.67h0a59.53,59.53,0,0,0,3.43-12.31v0c0-.23.06-.38.07-.47v0a.06.06,0,0,1,0,0h-.08l-.24-.06-76.13,52.43-.19.4,9.34-.75,9.34-.74-1.52-2.2-.64-.93,1.57-1.08.84,1.22,3.36-2.32.37.53c2.3,1.66,7.9,1.66,7.9,1.66l0,0c1.27-.24,2.51-.52,3.72-.82l7.22,11.32,5.88-16.27C705.74,314.5,713.16,302.08,716.86,292.67Z"/></g><path class="cls-34" d="M686.51,343.18a5.38,5.38,0,0,0-1.14.13c-1.16-4.93-5-8.55-9.47-8.55a9.49,9.49,0,0,0-8,5,8.57,8.57,0,0,0-3.75-.86,8.42,8.42,0,0,0-8.47,8.37,8,8,0,0,0,.23,1.91H691.3a5,5,0,0,0,.13-1.11A4.9,4.9,0,0,0,686.51,343.18Z"/><path class="cls-35" d="M684.16,343.18a5.24,5.24,0,0,0-1.14.13c-1.16-4.93-5-8.55-9.47-8.55a9.47,9.47,0,0,0-8,5,8.58,8.58,0,0,0-3.76-.86,8.42,8.42,0,0,0-8.46,8.37,8.54,8.54,0,0,0,.22,1.91h35.43a4.5,4.5,0,0,0,.13-1.11A4.89,4.89,0,0,0,684.16,343.18Z"/><path class="cls-33" d="M684.16,343.18a5.24,5.24,0,0,0-1.14.13c-1.16-4.93-5-8.55-9.47-8.55h-.42v14.38h15.81a4.5,4.5,0,0,0,.13-1.11A4.89,4.89,0,0,0,684.16,343.18Z"/><path class="cls-34" d="M699.66,265.06a7.5,7.5,0,0,0-1.72.2c-1.75-7.44-7.48-12.9-14.29-12.9-5,0-9.45,3-12.13,7.5a12.94,12.94,0,0,0-5.67-1.3,12.7,12.7,0,0,0-12.77,12.63,12.41,12.41,0,0,0,.34,2.88h53.46a7.07,7.07,0,0,0,.2-1.67A7.38,7.38,0,0,0,699.66,265.06Z"/><path class="cls-35" d="M696.11,265.06a7.5,7.5,0,0,0-1.72.2c-1.75-7.44-7.48-12.9-14.29-12.9-5,0-9.45,3-12.13,7.5a12.94,12.94,0,0,0-5.67-1.3,12.7,12.7,0,0,0-12.77,12.63,12.41,12.41,0,0,0,.34,2.88h53.46a7.07,7.07,0,0,0,.2-1.67A7.39,7.39,0,0,0,696.11,265.06Z"/><path class="cls-33" d="M696.11,265.06a7.5,7.5,0,0,0-1.72.2c-1.75-7.44-7.48-12.9-14.29-12.9h-.63v21.7h23.86a7.07,7.07,0,0,0,.2-1.67A7.39,7.39,0,0,0,696.11,265.06Z"/><path class="cls-34" d="M750.1,318.37a6.43,6.43,0,0,0-1.47.17c-1.5-6.39-6.43-11.08-12.27-11.08-4.3,0-8.11,2.55-10.42,6.45a11,11,0,0,0-15.82,9.72,10.57,10.57,0,0,0,.29,2.47H756.3a6.15,6.15,0,0,0,.16-1.43A6.33,6.33,0,0,0,750.1,318.37Z"/><path class="cls-35" d="M747.05,318.37a6.43,6.43,0,0,0-1.47.17c-1.5-6.39-6.42-11.08-12.27-11.08-4.3,0-8.11,2.55-10.41,6.45a11,11,0,0,0-4.86-1.12,10.89,10.89,0,0,0-11,10.84,10.57,10.57,0,0,0,.29,2.47h45.88a6.15,6.15,0,0,0,.17-1.43A6.33,6.33,0,0,0,747.05,318.37Z"/><path class="cls-33" d="M747.05,318.37a6.43,6.43,0,0,0-1.47.17c-1.5-6.39-6.42-11.08-12.27-11.08l-.54,0V326.1h20.48a6.15,6.15,0,0,0,.17-1.43A6.33,6.33,0,0,0,747.05,318.37Z"/></g><g id="Idea-2" data-name="Idea"><circle class="cls-19" cx="678.39" cy="473.67" r="67.02" transform="translate(61.53 1025.08) rotate(-76.72)"/><circle class="cls-36" cx="672.7" cy="469.79" r="67.02"/><g id="Lamp-2" data-name="Lamp"><path class="cls-37" d="M672.84,454.43c-2.18-.05-21.55.08-21.58,21.79,0,8.56,11.81,26.27,11.81,26.27h19.55s11.82-17.71,11.81-26.27C694.4,454.51,675,454.38,672.84,454.43Z"/><path class="cls-38" d="M675.57,503.08a61.69,61.69,0,0,1-1-11.53,16,16,0,0,1,.53-4.92,4.76,4.76,0,0,1-1.64,0,1.52,1.52,0,0,1-.93-.48,4.12,4.12,0,0,1-1.89.71l.22.32c1.53,2.37.56,15.32.52,15.87l-.61-.05c.28-3.69.75-13.67-.43-15.49q-.23-.35-.42-.6a3.23,3.23,0,0,1-.44,0c-1.27-.06-1.33-.41-1.35-.53a.79.79,0,0,1,.48-.82c.34-.13.86-.07,1.58.73a4.64,4.64,0,0,0,1.3-.27,2.6,2.6,0,0,0,.76-.42v0a1.81,1.81,0,0,1,.55-1.62.39.39,0,0,1,.46,0c.21.15.24.45.09,1a2.19,2.19,0,0,1-.37.75,1,1,0,0,0,.6.3,4.15,4.15,0,0,0,1.82-.08,2.13,2.13,0,0,1,.74-.84,1.26,1.26,0,0,1,1.2-.07l.36.2-.29.29a4.69,4.69,0,0,1-1.58.93,13.26,13.26,0,0,0-.64,5.09,62.85,62.85,0,0,0,.94,11.41Zm-6.77-16.89a3.14,3.14,0,0,0,.53.09c-.22-.16-.37-.19-.46-.16A.16.16,0,0,0,668.8,486.19Z"/><path class="cls-39" d="M663.07,502.49v10.32a2.38,2.38,0,0,0,2.33,2.44h14.89a2.39,2.39,0,0,0,2.33-2.44V502.49Z"/><path class="cls-22" d="M682.62,504.07a.71.71,0,0,1-.74.66H663.81a.71.71,0,0,1-.74-.66h0a.7.7,0,0,1,.74-.66h18.07a.7.7,0,0,1,.74.66Z"/><path class="cls-22" d="M682.62,506.71a.71.71,0,0,1-.74.67H663.81a.71.71,0,0,1-.74-.67h0a.71.71,0,0,1,.74-.66h18.07a.71.71,0,0,1,.74.66Z"/><path class="cls-22" d="M682.62,509.36a.7.7,0,0,1-.74.66H663.81a.7.7,0,0,1-.74-.66h0a.71.71,0,0,1,.74-.66h18.07a.71.71,0,0,1,.74.66Z"/><path class="cls-22" d="M682.62,512a.7.7,0,0,1-.74.66H663.81a.7.7,0,0,1-.74-.66h0a.7.7,0,0,1,.74-.66h18.07a.7.7,0,0,1,.74.66Z"/><path class="cls-5" d="M682.62,505.39a.7.7,0,0,1-.74.66H663.81a.7.7,0,0,1-.74-.66h0a.71.71,0,0,1,.74-.66h18.07a.71.71,0,0,1,.74.66Z"/><path class="cls-5" d="M682.62,508a.71.71,0,0,1-.74.66H663.81a.71.71,0,0,1-.74-.66h0a.7.7,0,0,1,.74-.66h18.07a.7.7,0,0,1,.74.66Z"/><path class="cls-5" d="M682.62,510.69a.71.71,0,0,1-.74.66H663.81a.71.71,0,0,1-.74-.66h0a.71.71,0,0,1,.74-.67h18.07a.71.71,0,0,1,.74.67Z"/><path class="cls-5" d="M682.62,513.33a.7.7,0,0,1-.74.66H663.81a.7.7,0,0,1-.74-.66h0a.71.71,0,0,1,.74-.66h18.07a.71.71,0,0,1,.74.66Z"/><path class="cls-5" d="M678.92,455.15c3.09,6.91,10.35,27.3-.53,47.38h4.23s11.82-17.72,11.81-26.27C694.41,461.42,685.35,456.66,678.92,455.15Z"/><path class="cls-40" d="M662.54,472.18c.4,1.16-.69,2.59-2.44,3.21s-3.5.18-3.91-1,.69-2.58,2.44-3.2S662.13,471,662.54,472.18Z"/><path class="cls-40" d="M669.87,462.51c.78,2.22-1.33,5-4.71,6.18s-6.75.35-7.53-1.88,1.32-5,4.7-6.18S669.08,460.28,669.87,462.51Z"/><polygon class="cls-37" points="639.71 435.9 640.39 435.3 658.6 453.82 657.92 454.42 639.71 435.9"/><polygon class="cls-37" points="620 462.04 620.12 461.16 646.33 464.52 646.21 465.4 620 462.04"/><polygon class="cls-37" points="621.04 486.82 620.85 485.95 646.76 480.91 646.95 481.78 621.04 486.82"/><polygon class="cls-37" points="703.87 435.9 703.2 435.3 684.98 453.82 685.66 454.42 703.87 435.9"/><polygon class="cls-37" points="725.4 463.42 725.27 462.54 699.06 465.9 699.19 466.78 725.4 463.42"/><polygon class="cls-37" points="723.62 484.75 723.81 483.88 697.9 478.84 697.71 479.7 723.62 484.75"/><polygon class="cls-37" points="673.46 449.48 672.53 449.49 672.03 424.36 672.96 424.34 673.46 449.48"/></g></g></g></g></g></g></svg>