<svg xmlns="http://www.w3.org/2000/svg" viewBox="0 0 324.76 365"><defs><style>.cls-1{fill:#9a4993;}.cls-2{fill:#6a1577;}.cls-3{fill:#813084;}.cls-4{fill:#fff;}</style></defs><title>Asset 1_csharp</title><g id="Layer_2" data-name="Layer 2"><g id="Layer_1-2" data-name="Layer 1"><path id="_Path_" data-name="&lt;Path&gt;" class="cls-1" d="M324.74,107.31a32.11,32.11,0,0,0-4-16.21A31,31,0,0,0,309,79.65Q244.18,42.26,179.29,4.91c-11.65-6.72-22.95-6.48-34.51.34C127.57,15.4,41.41,64.76,15.74,79.64,5.16,85.76,0,95.12,0,107.3q0,75.2,0,150.4a32.29,32.29,0,0,0,3.8,15.9,30.84,30.84,0,0,0,11.92,11.76c25.68,14.87,111.85,64.23,129.05,74.38,11.57,6.83,22.87,7.07,34.52.34Q244.14,322.65,309,285.35A31,31,0,0,0,321,273.59a32.4,32.4,0,0,0,3.8-15.9s0-100.24,0-150.38"/><path id="_Path_2" data-name="&lt;Path&gt;" class="cls-2" d="M162.88,182,3.8,273.6a30.84,30.84,0,0,0,11.92,11.76c25.68,14.87,111.85,64.23,129.05,74.38,11.57,6.83,22.87,7.07,34.52.34Q244.14,322.65,309,285.35A31,31,0,0,0,321,273.59L162.88,182"/><path id="_Path_3" data-name="&lt;Path&gt;" class="cls-2" d="M115.76,209.14a53.68,53.68,0,0,0,93.41-.31L162.88,182l-47.12,27.13"/><path id="_Path_4" data-name="&lt;Path&gt;" class="cls-3" d="M324.74,107.31a32.11,32.11,0,0,0-4-16.21L162.88,182,321,273.59a32.4,32.4,0,0,0,3.8-15.9s0-100.24,0-150.38"/><path id="_Path_5" data-name="&lt;Path&gt;" class="cls-4" d="M209.17,208.83a53.69,53.69,0,1,1-.34-53.27l46.93-27A107.85,107.85,0,1,0,256,236l-46.87-27.16"/><g id="_Group_" data-name="&lt;Group&gt;"><rect id="_Rectangle_" data-name="&lt;Rectangle&gt;" class="cls-4" x="257.82" y="157" width="10.67" height="51.67"/><rect id="_Rectangle_2" data-name="&lt;Rectangle&gt;" class="cls-4" x="281.49" y="157" width="10.67" height="51.67"/><rect id="_Rectangle_3" data-name="&lt;Rectangle&gt;" class="cls-4" x="269.65" y="145.17" width="10.67" height="51.67" transform="translate(445.99 -103.99) rotate(90)"/><rect id="_Rectangle_4" data-name="&lt;Rectangle&gt;" class="cls-4" x="269.65" y="168.83" width="10.67" height="51.67" transform="translate(469.65 -80.32) rotate(90)"/></g></g></g></svg>