<svg xmlns="http://www.w3.org/2000/svg" viewBox="0 0 362.8 512"><defs><style>.cls-1{fill:#e44d26;}.cls-2{fill:#f16529;}.cls-3{fill:#ebebeb;}.cls-4{fill:#fff;}</style></defs><title>Asset 1_html5</title><g id="Layer_2" data-name="Layer 2"><g id="Layer_1-2" data-name="Layer 1"><path d="M33.8,0h23V22.8H78V0h23V69H78V46H57V69H33.8m97.6-46H111.1V0h63.7V23H154.4V69h-23M184.9,0H209l14.8,24.3L238.6,0h24.1V69h-23V34.8L223.6,59.6,207.5,34.8V69H184.9M274.1,0h23V46.2h32.6V69H274.1"/><path class="cls-1" d="M33,471,0,100.6H362.8l-33,370.2L181.1,512"/><path class="cls-2" d="M181.4,480.5V131H329.7L301.4,447"/><path class="cls-3" d="M67.4,176.3h114v45.4H117.2l4.2,46.5h60v45.3H79.8m2,22.8h45.6l3.2,36.3,50.8,13.6v47.4l-93.2-26"/><path class="cls-4" d="M295,176.3H181.2v45.4H290.8m-4.1,46.5H181.2v45.4h56l-5.3,59-50.7,13.6v47.2l93-25.8"/></g></g></svg>