<svg xmlns="http://www.w3.org/2000/svg" viewBox="0 0 4046.81 4046.74"><defs><style>.cls-1{fill:#fff;}.cls-1,.cls-2{fill-rule:evenodd;}.cls-2{fill:#f8af39;}</style></defs><title>Asset 2logo-square-icon-white</title><g id="Layer_2" data-name="Layer 2"><g id="Layer_1-2" data-name="Layer 1"><path class="cls-1" d="M4046.7,2024.78q0,537.1,0,1074.21c-.05,478.53-337.66,869.31-810.75,937.56-41,5.92-82.69,9.69-124.06,9.72q-1091.25.86-2182.52.38c-458.08-.09-858.19-351.08-918.66-806.49-6.2-46.67-10.11-94-10.15-141.09Q-.39,2007.82.22,916.55C.44,473.21,362.32,64.73,802.42,11.16,856.67,4.56,911.61.61,966.23.56Q2046.11-.48,3126,.18c448.12.16,854.44,358.91,909.79,803.63a1311,1311,0,0,1,10.44,158.13Q4047.58,1493.36,4046.7,2024.78ZM2023.36,219.11c-354.25,0-708.51-.6-1062.76.65-52.69.18-106.45,3.87-157.86,14.74-349.37,73.92-583.14,363-583.68,723.34q-1.59,1065.6.27,2131.21c.06,50.84,4,102.66,14.26,152.34C306.5,3594,597,3827.31,966.37,3827.93q1057.07,1.77,2114.16-.31c54.58-.08,110.27-4.1,163.55-15.3,346.76-72.92,582.79-361.85,583.53-717.65q2.23-1071.29-.16-2142.58c-.06-49-4.28-98.8-14.15-146.67C3741.42,457,3449.1,219.88,3091.81,219.26Q2557.59,218.33,2023.36,219.11Z"/><path class="cls-2" d="M3550.11,1673.63c-176.73,181.29-347.13,355.95-517.35,530.79-72.67,74.64-144.13,150.49-217.93,224-23.88,23.78-30.35,45.72-24.64,80,57.9,346.59,113.46,693.57,169.54,1040.46.85,5.22.11,10.69.11,23.51-22.13-11-40.25-19.27-57.61-28.88-281.17-155.61-562.58-310.79-842.89-467.95-34.08-19.1-59.34-19-93.32,0-278.72,156.12-558.52,310.29-838,465-17.85,9.88-36.06,19.13-65.43,34.65,15.52-101.58,28.68-193.48,43.74-285,43.21-262.82,88.16-525.35,129.19-788.5,3.55-22.72-10.23-55.48-27-73-228.42-237.6-458.8-473.31-688.64-709.55-12.9-13.26-25.27-27-44.89-48.06,72.59-11.91,136.8-23.07,201.2-32.92,276.42-42.3,553-83.38,829.06-128.05,19.62-3.18,41.82-28.62,51.53-49.07,141-296.91,280-594.75,419.64-892.33,10.22-21.78,21-43.31,36.36-75,29,60.3,54.29,111.8,78.63,163.75q188.73,402.86,376.7,806c13.55,29.11,28.32,45.62,64.87,50.94,325.36,47.28,650.23,97.87,975.2,147.71C3519.19,1663.84,3529.86,1668,3550.11,1673.63Z"/></g></g></svg>