<svg xmlns="http://www.w3.org/2000/svg" viewBox="0 0 168.03 114.11"><defs><style>.cls-1,.cls-4{fill:#5d87a1;}.cls-2,.cls-3{fill:#f8981d;}.cls-3,.cls-4{fill-rule:evenodd;}</style></defs><title>Asset 1_mysql</title><g id="Layer_2" data-name="Layer 2"><g id="Layer_1-2" data-name="Layer 1"><path class="cls-1" d="M40.4,104H33.91Q33.58,87.55,32,73.09H32L22.09,104H17.16L7.34,73.09h0Q6.19,87,5.91,104H0Q.57,83.31,2.87,65.22h8l9.36,28.46h0l9.42-28.46h7.68q2.54,21.18,3,38.74"/><path class="cls-1" d="M68.52,75.38q-4,21.48-10.45,31.23Q53,114.11,47,114.11a10.83,10.83,0,0,1-4-1V109.7a19,19,0,0,0,2.69.17,6.55,6.55,0,0,0,4.54-1.55,5.68,5.68,0,0,0,2.06-4.25,28.19,28.19,0,0,0-1.6-6.6L43.61,75.38H50L55.09,91.9q1.71,5.64,1.43,7.87a108,108,0,0,0,5.86-24.39Z"/><polygon class="cls-2" points="154.82 103.96 136.4 103.96 136.4 65.22 142.6 65.22 142.6 99.19 154.82 99.19 154.82 103.96"/><path class="cls-3" d="M131.58,104.89l-7.12-3.51a13.2,13.2,0,0,0,1.78-1.73q4.53-5.33,4.54-15.78,0-19.22-15.09-19.22-7.41,0-11.54,4.88-4.53,5.32-4.53,15.72,0,10.22,4,15,3.68,4.3,11.08,4.3a18,18,0,0,0,5.07-.68l9.27,5.4Zm-23.07-8.68q-2.36-3.79-2.35-12.16,0-14.64,8.89-14.64a7.47,7.47,0,0,1,6.83,3.5q2.36,3.8,2.36,12,0,14.75-8.9,14.75a7.46,7.46,0,0,1-6.83-3.5"/><path class="cls-2" d="M96.92,93.22a10.27,10.27,0,0,1-3.62,8.09q-3.61,3.15-9.69,3.16a19.41,19.41,0,0,1-11-3.62l1.66-3.33a19,19,0,0,0,8.32,2.3,8.69,8.69,0,0,0,5.48-1.55A5.26,5.26,0,0,0,90.16,94c0-2.3-1.6-4.27-4.55-5.91-2.71-1.5-8.14-4.61-8.14-4.61-3-2.14-4.42-4.45-4.42-8.24a9.64,9.64,0,0,1,3.3-7.61,12.45,12.45,0,0,1,8.52-2.9,17.61,17.61,0,0,1,9.81,2.88l-1.5,3.32a18.94,18.94,0,0,0-7.45-1.6,6.64,6.64,0,0,0-4.59,1.43A4.83,4.83,0,0,0,79.4,74.4c0,2.3,1.64,4.29,4.67,6C86.82,81.86,92.38,85,92.38,85c3,2.15,4.54,4.43,4.54,8.19"/><path class="cls-4" d="M162.6,52.25a21.53,21.53,0,0,0-9.08,1.31c-.7.28-1.83.28-1.92,1.17.37.37.42,1,.75,1.5a11,11,0,0,0,2.43,2.85c1,.75,2,1.5,3,2.15,1.82,1.13,3.88,1.78,5.66,2.91,1,.65,2.06,1.49,3.09,2.2.51.37.84,1,1.5,1.21v-.14c-.33-.42-.43-1-.75-1.5l-1.41-1.35A22,22,0,0,0,161,59.83c-1.5-1-4.78-2.44-5.39-4.16l-.09-.1a18.7,18.7,0,0,0,3.23-.75c1.59-.42,3-.33,4.68-.75.75-.19,1.5-.42,2.25-.65V53c-.85-.84-1.45-2-2.34-2.76a61.74,61.74,0,0,0-7.73-5.75c-1.45-.94-3.32-1.55-4.87-2.34-.55-.28-1.49-.42-1.82-.89A19.12,19.12,0,0,1,147,37.64c-1.35-2.57-2.67-5.42-3.84-8.14a49.46,49.46,0,0,0-2.38-5.34c-4.83-7.95-10.07-12.77-18.12-17.5a22.81,22.81,0,0,0-6-1.92c-1.18,0-2.35-.14-3.52-.19A16.48,16.48,0,0,1,111,2.91c-2.67-1.68-9.55-5.33-11.51-.51-1.27,3,1.87,6,2.95,7.58a22.82,22.82,0,0,1,2.38,3.51c.33.8.42,1.64.75,2.48A55.19,55.19,0,0,0,108,22.25a21.76,21.76,0,0,0,1.73,2.9c.37.51,1,.74,1.17,1.59-.66.93-.71,2.34-1.08,3.51-1.68,5.29-1,11.84,1.36,15.72.75,1.17,2.53,3.75,4.91,2.76,2.11-.84,1.64-3.5,2.25-5.84.14-.57,0-.94.33-1.31v.09c.65,1.31,1.31,2.57,1.92,3.88a26.45,26.45,0,0,0,6.08,6.27c1.12.85,2,2.3,3.42,2.81v-.14H130a5,5,0,0,0-1.07-.93,23.6,23.6,0,0,1-2.44-2.81,60,60,0,0,1-5.24-8.52c-.75-1.45-1.4-3-2-4.49-.28-.56-.28-1.41-.75-1.69a17.62,17.62,0,0,0-2.25,3.18c-.89,2-1,4.5-1.31,7.07-.19.05-.09,0-.19.09-1.49-.37-2-1.91-2.57-3.22a20.27,20.27,0,0,1-.42-12.5c.33-1,1.73-4.07,1.17-5-.28-.89-1.22-1.4-1.73-2.1a18.45,18.45,0,0,1-1.69-3c-1.12-2.62-1.68-5.52-2.9-8.14a24.17,24.17,0,0,0-2.34-3.61,22.68,22.68,0,0,1-2.57-3.65c-.24-.51-.56-1.35-.19-1.91a.75.75,0,0,1,.66-.62c.6-.51,2.34.14,2.94.43a23.17,23.17,0,0,1,4.64,2.34c.65.46,1.35,1.35,2.2,1.59h1c1.5.32,3.18.09,4.59.51a30.45,30.45,0,0,1,6.74,3.23,41.59,41.59,0,0,1,14.6,16c.56,1.07.8,2.06,1.31,3.18,1,2.3,2.2,4.64,3.18,6.88a30.21,30.21,0,0,0,3.33,6.27c.7,1,3.51,1.5,4.77,2a34.53,34.53,0,0,1,3.23,1.3c1.59,1,3.18,2.11,4.68,3.19.75.56,3.09,1.73,3.23,2.67"/><path class="cls-4" d="M114.86,11.57a7.38,7.38,0,0,0-1.92.24v.09H113a15,15,0,0,0,1.5,1.92c.38.75.7,1.5,1.08,2.25l.09-.1a2.62,2.62,0,0,0,1-2.34,9.92,9.92,0,0,1-.57-1c-.28-.47-.89-.7-1.26-1.08"/><path class="cls-2" d="M167.06,104h1V99.21h-1.46l-1.18,3.23-1.29-3.23h-1.41V104h.92v-3.61h0L165,104h.7l1.35-3.61Zm-7.82,0h1V100h1.35v-.8h-3.77v.8h1.39Z"/></g></g></svg>